<svg width="144" height="44" viewBox="0 0 144 44" fill="none" xmlns="http://www.w3.org/2000/svg">
<rect x="-3.05176e-05" y="0.761475" width="143.582" height="42.9358" rx="21.4679" fill="white"/>
<path fill-rule="evenodd" clip-rule="evenodd" d="M34.1025 21.8733C34.1219 20.3693 34.9104 18.9801 36.1917 18.1924C35.3797 17.0327 34.0684 16.3238 32.6534 16.2796C31.1647 16.1233 29.7215 17.1704 28.9629 17.1704C28.1896 17.1704 27.0216 16.2951 25.7639 16.321C24.109 16.3744 22.6036 17.2925 21.7985 18.7393C20.084 21.7077 21.3629 26.0704 23.0053 28.4699C23.827 29.6448 24.7873 30.9573 26.0439 30.9107C27.2736 30.8597 27.7329 30.1266 29.2172 30.1266C30.6877 30.1266 31.1186 30.9107 32.4007 30.8811C33.7202 30.8597 34.5515 29.701 35.3444 28.5149C35.9348 27.6777 36.3891 26.7524 36.6905 25.7733C35.1234 25.1105 34.1044 23.5749 34.1025 21.8733Z" fill="black"/>
<path fill-rule="evenodd" clip-rule="evenodd" d="M31.6808 14.7016C32.4002 13.8379 32.7547 12.7278 32.6688 11.6071C31.5697 11.7225 30.5544 12.2478 29.8252 13.0783C29.1052 13.8978 28.7405 14.9698 28.8113 16.0583C29.9252 16.0698 30.9828 15.5697 31.6808 14.7016Z" fill="black"/>
<path d="M48.099 15.8661V11.4459H49.3756C49.7267 11.4459 50.0219 11.4964 50.2613 11.5975C50.5006 11.6932 50.6948 11.8368 50.8437 12.0283C50.998 12.2145 51.107 12.4432 51.1708 12.7145C51.24 12.9805 51.2746 13.2836 51.2746 13.6241C51.2746 13.9751 51.2373 14.2757 51.1629 14.5257C51.0937 14.7704 51.0033 14.9751 50.8916 15.14C50.7799 15.3049 50.6522 15.4352 50.5086 15.531C50.3703 15.6267 50.2294 15.7012 50.0857 15.7544C49.9421 15.8023 49.8065 15.8342 49.6788 15.8501C49.5512 15.8608 49.4448 15.8661 49.3597 15.8661H48.099ZM47.3411 10.8076V16.5044H49.2958C49.7693 16.5044 50.1788 16.4379 50.5246 16.3049C50.8703 16.1719 51.1549 15.9805 51.3783 15.7305C51.6017 15.4751 51.7666 15.164 51.873 14.7969C51.9794 14.4246 52.0325 13.9991 52.0325 13.5204C52.0325 12.6055 51.7958 11.9246 51.3224 11.4778C50.849 11.031 50.1735 10.8076 49.2958 10.8076H47.3411ZM53.5014 14.4459C53.5014 14.1959 53.5334 13.9751 53.5972 13.7836C53.6663 13.5868 53.7594 13.4219 53.8764 13.289C53.9935 13.156 54.1291 13.0549 54.2834 12.9858C54.4429 12.9166 54.6105 12.8821 54.786 12.8821C54.9616 12.8821 55.1264 12.9166 55.2807 12.9858C55.4403 13.0549 55.5786 13.156 55.6956 13.289C55.8126 13.4219 55.903 13.5868 55.9669 13.7836C56.036 13.9751 56.0706 14.1959 56.0706 14.4459C56.0706 14.6959 56.036 14.9193 55.9669 15.1161C55.903 15.3076 55.8126 15.4698 55.6956 15.6028C55.5786 15.7305 55.4403 15.8289 55.2807 15.898C55.1264 15.9672 54.9616 16.0017 54.786 16.0017C54.6105 16.0017 54.4429 15.9672 54.2834 15.898C54.1291 15.8289 53.9935 15.7305 53.8764 15.6028C53.7594 15.4698 53.6663 15.3076 53.5972 15.1161C53.5334 14.9193 53.5014 14.6959 53.5014 14.4459ZM52.7834 14.4459C52.7834 14.7491 52.8259 15.031 52.911 15.2916C52.9961 15.5523 53.1238 15.781 53.294 15.9778C53.4642 16.1693 53.6743 16.3209 53.9243 16.4326C54.1743 16.539 54.4616 16.5922 54.786 16.5922C55.1158 16.5922 55.403 16.539 55.6477 16.4326C55.8977 16.3209 56.1078 16.1693 56.278 15.9778C56.4483 15.781 56.5759 15.5523 56.661 15.2916C56.7461 15.031 56.7887 14.7491 56.7887 14.4459C56.7887 14.1427 56.7461 13.8608 56.661 13.6001C56.5759 13.3342 56.4483 13.1055 56.278 12.914C56.1078 12.7172 55.8977 12.5629 55.6477 12.4512C55.403 12.3395 55.1158 12.2836 54.786 12.2836C54.4616 12.2836 54.1743 12.3395 53.9243 12.4512C53.6743 12.5629 53.4642 12.7172 53.294 12.914C53.1238 13.1055 52.9961 13.3342 52.911 13.6001C52.8259 13.8608 52.7834 14.1427 52.7834 14.4459ZM61.833 16.5044L63.1495 12.3794H62.4473L61.5218 15.7544H61.5058L60.6441 12.3794H59.9021L59.0723 15.7544H59.0564L58.1229 12.3794H57.3729L58.6973 16.5044H59.4314L60.2612 13.2251H60.2771L61.1149 16.5044H61.833ZM63.9538 12.3794V16.5044H64.632V14.1746C64.632 13.9884 64.6559 13.8182 64.7038 13.664C64.757 13.5044 64.8341 13.3661 64.9352 13.2491C65.0363 13.1321 65.1613 13.0416 65.3102 12.9778C65.4645 12.914 65.6453 12.8821 65.8528 12.8821C66.1134 12.8821 66.3182 12.9565 66.4671 13.1055C66.6161 13.2544 66.6905 13.4565 66.6905 13.7118V16.5044H67.3687V13.7916C67.3687 13.5682 67.3448 13.3661 67.2969 13.1852C67.2544 12.9991 67.1772 12.8395 67.0655 12.7065C66.9538 12.5735 66.8075 12.4698 66.6267 12.3954C66.4458 12.3209 66.2198 12.2836 65.9485 12.2836C65.3368 12.2836 64.89 12.5336 64.6081 13.0336H64.5921V12.3794H63.9538ZM68.5868 10.8076V16.5044H69.265V10.8076H68.5868ZM70.9699 14.4459C70.9699 14.1959 71.0018 13.9751 71.0656 13.7836C71.1348 13.5868 71.2278 13.4219 71.3449 13.289C71.4619 13.156 71.5975 13.0549 71.7518 12.9858C71.9114 12.9166 72.0789 12.8821 72.2544 12.8821C72.43 12.8821 72.5949 12.9166 72.7491 12.9858C72.9087 13.0549 73.047 13.156 73.164 13.289C73.281 13.4219 73.3715 13.5868 73.4353 13.7836C73.5044 13.9751 73.539 14.1959 73.539 14.4459C73.539 14.6959 73.5044 14.9193 73.4353 15.1161C73.3715 15.3076 73.281 15.4698 73.164 15.6028C73.047 15.7305 72.9087 15.8289 72.7491 15.898C72.5949 15.9672 72.43 16.0017 72.2544 16.0017C72.0789 16.0017 71.9114 15.9672 71.7518 15.898C71.5975 15.8289 71.4619 15.7305 71.3449 15.6028C71.2278 15.4698 71.1348 15.3076 71.0656 15.1161C71.0018 14.9193 70.9699 14.6959 70.9699 14.4459ZM70.2518 14.4459C70.2518 14.7491 70.2943 15.031 70.3794 15.2916C70.4645 15.5523 70.5922 15.781 70.7624 15.9778C70.9326 16.1693 71.1427 16.3209 71.3927 16.4326C71.6427 16.539 71.93 16.5922 72.2544 16.5922C72.5842 16.5922 72.8715 16.539 73.1161 16.4326C73.3661 16.3209 73.5762 16.1693 73.7465 15.9778C73.9167 15.781 74.0443 15.5523 74.1294 15.2916C74.2145 15.031 74.2571 14.7491 74.2571 14.4459C74.2571 14.1427 74.2145 13.8608 74.1294 13.6001C74.0443 13.3342 73.9167 13.1055 73.7465 12.914C73.5762 12.7172 73.3661 12.5629 73.1161 12.4512C72.8715 12.3395 72.5842 12.2836 72.2544 12.2836C71.93 12.2836 71.6427 12.3395 71.3927 12.4512C71.1427 12.5629 70.9326 12.7172 70.7624 12.914C70.5922 13.1055 70.4645 13.3342 70.3794 13.6001C70.2943 13.8608 70.2518 14.1427 70.2518 14.4459ZM78.8705 16.4884C78.7535 16.5576 78.5913 16.5922 78.3838 16.5922C78.2083 16.5922 78.0674 16.5443 77.961 16.4485C77.8599 16.3475 77.8094 16.1852 77.8094 15.9618C77.6232 16.1852 77.4051 16.3475 77.1551 16.4485C76.9104 16.5443 76.6445 16.5922 76.3572 16.5922C76.1711 16.5922 75.9929 16.5709 75.8227 16.5283C75.6578 16.4858 75.5142 16.4193 75.3918 16.3289C75.2695 16.2384 75.1711 16.1214 75.0966 15.9778C75.0275 15.8289 74.9929 15.6507 74.9929 15.4432C74.9929 15.2092 75.0328 15.0177 75.1126 14.8688C75.1924 14.7198 75.2961 14.6001 75.4237 14.5097C75.5567 14.414 75.7056 14.3422 75.8705 14.2943C76.0408 14.2464 76.2136 14.2065 76.3892 14.1746C76.5753 14.1374 76.7509 14.1108 76.9158 14.0948C77.086 14.0735 77.2349 14.0469 77.3626 14.015C77.4902 13.9778 77.5913 13.9273 77.6658 13.8634C77.7402 13.7943 77.7775 13.6959 77.7775 13.5682C77.7775 13.4193 77.7482 13.2996 77.6897 13.2092C77.6365 13.1188 77.5647 13.0496 77.4743 13.0017C77.3892 12.9539 77.2908 12.9219 77.1791 12.906C77.0727 12.89 76.9663 12.8821 76.8599 12.8821C76.5727 12.8821 76.3333 12.9379 76.1418 13.0496C75.9503 13.156 75.8466 13.3608 75.8306 13.664H75.1525C75.1631 13.4086 75.2163 13.1932 75.312 13.0177C75.4078 12.8422 75.5354 12.7012 75.695 12.5948C75.8546 12.4831 76.0354 12.4033 76.2376 12.3555C76.445 12.3076 76.6658 12.2836 76.8998 12.2836C77.086 12.2836 77.2695 12.2969 77.4503 12.3235C77.6365 12.3501 77.8041 12.406 77.953 12.4911C78.1019 12.5709 78.2216 12.6852 78.312 12.8342C78.4025 12.9831 78.4477 13.1773 78.4477 13.4166V15.539C78.4477 15.6985 78.4556 15.8156 78.4716 15.89C78.4929 15.9645 78.5567 16.0017 78.6631 16.0017C78.7216 16.0017 78.7908 15.9884 78.8705 15.9618V16.4884ZM77.7695 14.3741C77.6844 14.4379 77.5727 14.4858 77.4344 14.5177C77.2961 14.5443 77.1498 14.5682 76.9955 14.5895C76.8466 14.6055 76.695 14.6267 76.5408 14.6533C76.3865 14.6746 76.2482 14.7118 76.1259 14.765C76.0035 14.8182 75.9025 14.8954 75.8227 14.9964C75.7482 15.0922 75.711 15.2251 75.711 15.3954C75.711 15.5071 75.7322 15.6028 75.7748 15.6826C75.8227 15.7571 75.8812 15.8182 75.9503 15.8661C76.0248 15.914 76.1099 15.9485 76.2056 15.9698C76.3014 15.9911 76.4025 16.0017 76.5088 16.0017C76.7322 16.0017 76.9237 15.9725 77.0833 15.914C77.2429 15.8501 77.3732 15.773 77.4743 15.6826C77.5753 15.5868 77.6498 15.4858 77.6977 15.3794C77.7455 15.2677 77.7695 15.164 77.7695 15.0682V14.3741ZM80.156 14.4778C80.156 14.2757 80.1773 14.0789 80.2198 13.8874C80.2624 13.6959 80.3315 13.5257 80.4273 13.3767C80.523 13.2278 80.6507 13.1081 80.8102 13.0177C80.9698 12.9273 81.164 12.8821 81.3927 12.8821C81.6267 12.8821 81.8262 12.9273 81.9911 13.0177C82.156 13.1028 82.289 13.2172 82.39 13.3608C82.4964 13.5044 82.5735 13.6719 82.6214 13.8634C82.6693 14.0496 82.6932 14.2438 82.6932 14.4459C82.6932 14.6374 82.6693 14.8262 82.6214 15.0124C82.5789 15.1985 82.5071 15.3661 82.406 15.515C82.3049 15.6586 82.1746 15.7757 82.015 15.8661C81.8555 15.9565 81.6613 16.0017 81.4326 16.0017C81.2145 16.0017 81.023 15.9592 80.8581 15.8741C80.6985 15.789 80.5656 15.6746 80.4592 15.531C80.3581 15.3874 80.281 15.2251 80.2278 15.0443C80.1799 14.8581 80.156 14.6693 80.156 14.4778ZM83.3475 16.5044V10.8076H82.6693V12.9299H82.6533C82.5789 12.8076 82.4858 12.7065 82.3741 12.6267C82.2677 12.5416 82.1533 12.4751 82.031 12.4273C81.9086 12.3741 81.7863 12.3368 81.664 12.3156C81.5416 12.2943 81.4273 12.2836 81.3209 12.2836C81.0071 12.2836 80.7305 12.3422 80.4911 12.4592C80.2571 12.5709 80.0602 12.7251 79.9007 12.9219C79.7464 13.1134 79.6294 13.3395 79.5496 13.6001C79.4751 13.8608 79.4379 14.1374 79.4379 14.4299C79.4379 14.7225 79.4778 14.9991 79.5576 15.2597C79.6374 15.5204 79.7544 15.7491 79.9086 15.9459C80.0682 16.1427 80.265 16.2996 80.4991 16.4166C80.7384 16.5336 81.0177 16.5922 81.3368 16.5922C81.6241 16.5922 81.8874 16.5416 82.1267 16.4406C82.3661 16.3395 82.5416 16.1746 82.6533 15.9459H82.6693V16.5044H83.3475ZM87.4254 14.4459C87.4254 14.1959 87.4573 13.9751 87.5211 13.7836C87.5902 13.5868 87.6833 13.4219 87.8004 13.289C87.9174 13.156 88.053 13.0549 88.2073 12.9858C88.3668 12.9166 88.5344 12.8821 88.7099 12.8821C88.8855 12.8821 89.0504 12.9166 89.2046 12.9858C89.3642 13.0549 89.5025 13.156 89.6195 13.289C89.7365 13.4219 89.827 13.5868 89.8908 13.7836C89.9599 13.9751 89.9945 14.1959 89.9945 14.4459C89.9945 14.6959 89.9599 14.9193 89.8908 15.1161C89.827 15.3076 89.7365 15.4698 89.6195 15.6028C89.5025 15.7305 89.3642 15.8289 89.2046 15.898C89.0504 15.9672 88.8855 16.0017 88.7099 16.0017C88.5344 16.0017 88.3668 15.9672 88.2073 15.898C88.053 15.8289 87.9174 15.7305 87.8004 15.6028C87.6833 15.4698 87.5902 15.3076 87.5211 15.1161C87.4573 14.9193 87.4254 14.6959 87.4254 14.4459ZM86.7073 14.4459C86.7073 14.7491 86.7498 15.031 86.8349 15.2916C86.92 15.5523 87.0477 15.781 87.2179 15.9778C87.3881 16.1693 87.5982 16.3209 87.8482 16.4326C88.0982 16.539 88.3855 16.5922 88.7099 16.5922C89.0397 16.5922 89.327 16.539 89.5716 16.4326C89.8216 16.3209 90.0317 16.1693 90.202 15.9778C90.3722 15.781 90.4998 15.5523 90.5849 15.2916C90.67 15.031 90.7126 14.7491 90.7126 14.4459C90.7126 14.1427 90.67 13.8608 90.5849 13.6001C90.4998 13.3342 90.3722 13.1055 90.202 12.914C90.0317 12.7172 89.8216 12.5629 89.5716 12.4512C89.327 12.3395 89.0397 12.2836 88.7099 12.2836C88.3855 12.2836 88.0982 12.3395 87.8482 12.4512C87.5982 12.5629 87.3881 12.7172 87.2179 12.914C87.0477 13.1055 86.92 13.3342 86.8349 13.6001C86.7498 13.8608 86.7073 14.1427 86.7073 14.4459ZM91.6718 12.3794V16.5044H92.35V14.1746C92.35 13.9884 92.3739 13.8182 92.4218 13.664C92.475 13.5044 92.5521 13.3661 92.6532 13.2491C92.7542 13.1321 92.8792 13.0416 93.0282 12.9778C93.1824 12.914 93.3633 12.8821 93.5707 12.8821C93.8314 12.8821 94.0361 12.9565 94.1851 13.1055C94.334 13.2544 94.4085 13.4565 94.4085 13.7118V16.5044H95.0867V13.7916C95.0867 13.5682 95.0627 13.3661 95.0149 13.1852C94.9723 12.9991 94.8952 12.8395 94.7835 12.7065C94.6718 12.5735 94.5255 12.4698 94.3447 12.3954C94.1638 12.3209 93.9377 12.2836 93.6665 12.2836C93.0548 12.2836 92.608 12.5336 92.326 13.0336H92.3101V12.3794H91.6718ZM99.5865 12.3794V11.1427H98.9084V12.3794H98.2062V12.9778H98.9084V15.6028C98.9084 15.7943 98.927 15.9485 98.9642 16.0656C99.0014 16.1826 99.0573 16.273 99.1318 16.3368C99.2115 16.4007 99.3126 16.4459 99.435 16.4725C99.5626 16.4938 99.7142 16.5044 99.8897 16.5044H100.408V15.906H100.097C99.9908 15.906 99.903 15.9033 99.8339 15.898C99.7701 15.8874 99.7195 15.8688 99.6823 15.8422C99.6451 15.8156 99.6185 15.7783 99.6025 15.7305C99.5919 15.6826 99.5865 15.6188 99.5865 15.539V12.9778H100.408V12.3794H99.5865ZM101.321 10.8076V16.5044H102V14.1746C102 13.9884 102.023 13.8182 102.071 13.664C102.125 13.5044 102.202 13.3661 102.303 13.2491C102.404 13.1321 102.529 13.0416 102.678 12.9778C102.832 12.914 103.013 12.8821 103.22 12.8821C103.481 12.8821 103.686 12.9565 103.835 13.1055C103.984 13.2544 104.058 13.4565 104.058 13.7118V16.5044H104.736V13.7916C104.736 13.5682 104.712 13.3661 104.664 13.1852C104.622 12.9991 104.545 12.8395 104.433 12.7065C104.321 12.5735 104.175 12.4698 103.994 12.3954C103.813 12.3209 103.587 12.2836 103.316 12.2836C103.194 12.2836 103.066 12.2969 102.933 12.3235C102.805 12.3501 102.68 12.3927 102.558 12.4512C102.441 12.5044 102.335 12.5762 102.239 12.6666C102.143 12.7517 102.069 12.8581 102.016 12.9858H102V10.8076H101.321ZM108.779 14.0469H106.409C106.42 13.8874 106.454 13.7384 106.513 13.6001C106.571 13.4565 106.651 13.3315 106.752 13.2251C106.853 13.1188 106.973 13.0363 107.111 12.9778C107.255 12.914 107.414 12.8821 107.59 12.8821C107.76 12.8821 107.914 12.914 108.053 12.9778C108.196 13.0363 108.319 13.1188 108.42 13.2251C108.526 13.3262 108.609 13.4485 108.667 13.5922C108.731 13.7358 108.768 13.8874 108.779 14.0469ZM109.433 15.1959H108.763C108.704 15.4672 108.582 15.6693 108.396 15.8023C108.215 15.9352 107.981 16.0017 107.694 16.0017C107.47 16.0017 107.276 15.9645 107.111 15.89C106.946 15.8156 106.811 15.7172 106.704 15.5948C106.598 15.4672 106.521 15.3235 106.473 15.164C106.425 14.9991 106.404 14.8262 106.409 14.6454H109.497C109.508 14.3954 109.484 14.1321 109.425 13.8555C109.372 13.5789 109.271 13.3235 109.122 13.0895C108.978 12.8555 108.784 12.664 108.539 12.515C108.3 12.3608 107.997 12.2836 107.63 12.2836C107.348 12.2836 107.087 12.3368 106.848 12.4432C106.614 12.5496 106.409 12.6985 106.234 12.89C106.063 13.0815 105.93 13.3076 105.835 13.5682C105.739 13.8289 105.691 14.1161 105.691 14.4299C105.702 14.7438 105.747 15.0336 105.827 15.2996C105.912 15.5656 106.037 15.7943 106.202 15.9858C106.367 16.1773 106.569 16.3262 106.808 16.4326C107.053 16.539 107.34 16.5922 107.67 16.5922C108.138 16.5922 108.526 16.4751 108.835 16.2411C109.143 16.0071 109.343 15.6586 109.433 15.1959Z" fill="#666666"/>
<path d="M61.7187 23.1114C63.7558 23.1114 65.0986 24.7217 65.0986 27.209C65.0986 29.7032 63.7636 31.3057 61.749 31.3057C60.7077 31.3602 59.7268 30.8147 59.2236 29.9014H59.1855V33.877H57.538V23.1954H59.1327V24.5304H59.163C59.6886 23.6228 60.6705 23.0776 61.7187 23.1114ZM70.5528 23.1114C72.5899 23.1114 73.9327 24.7217 73.9327 27.209C73.9327 29.7032 72.5977 31.3057 70.5831 31.3057C69.5418 31.3602 68.5609 30.8147 68.0577 29.9014H68.0196V33.877H66.3721V23.1954H67.9668V24.5304H67.9971C68.5226 23.6228 69.5045 23.0776 70.5528 23.1114ZM82.3806 20.0293C84.7069 20.0293 86.3016 21.334 86.3553 23.2334H84.6921C84.5926 22.1348 83.6844 21.4716 82.3572 21.4716C81.03 21.4716 80.1219 22.1426 80.1219 23.1192C80.1219 23.8975 80.7019 24.3554 82.1209 24.706L83.3338 25.0039C85.5925 25.538 86.531 26.4453 86.531 28.0556C86.531 30.1152 84.8904 31.4052 82.281 31.4052C79.8396 31.4052 78.1913 30.1455 78.0848 28.1543L79.7713 28.1544C79.8933 29.2461 80.9539 29.9629 82.4031 29.9629C83.7918 29.9629 84.7909 29.2461 84.7909 28.2617C84.7909 27.4072 84.1883 26.8956 82.7616 26.5449L81.3348 26.2012C79.3133 25.7129 78.3748 24.7675 78.3748 23.2334C78.3748 21.334 80.0301 20.0293 82.3806 20.0293ZM96.3036 23.0967C98.6307 23.0967 100.111 24.6836 100.111 27.209C100.111 29.7413 98.6385 31.3213 96.3036 31.3213C93.9695 31.3213 92.4969 29.7413 92.4969 27.209C92.4969 24.6836 93.9843 23.0967 96.3036 23.0967ZM109.645 23.0967C111.865 23.0967 113.262 24.6221 113.262 27.0557V27.6202H107.593V27.7198C107.54 28.3173 107.746 28.9088 108.159 29.3438C108.573 29.7787 109.153 30.0153 109.752 29.9932C110.552 30.0681 111.305 29.609 111.606 28.8643L113.17 28.8643C112.948 30.3213 111.529 31.3213 109.714 31.3213C107.379 31.3213 105.93 29.7569 105.93 27.2471C105.93 24.7295 107.387 23.0967 109.645 23.0967ZM90.0866 21.2959V23.1954H91.6129V24.5001H90.0866V28.9249C90.0866 29.6123 90.3922 29.9326 91.0632 29.9326C91.2444 29.9295 91.4253 29.9167 91.6052 29.8945V31.1914C91.3035 31.2478 90.9969 31.2733 90.6901 31.2676C89.0651 31.2676 88.4313 30.6572 88.4313 29.1006V24.5001H87.2643V23.1954H88.4313V21.2959H90.0866ZM52.5401 20.2129L56.5147 31.2217H54.707L53.7002 28.2461H49.5039L48.4962 31.2217H46.7188L50.6934 20.2129H52.5401ZM105.01 23.1114C105.199 23.1107 105.389 23.1313 105.574 23.1729V24.7139C105.334 24.6406 105.084 24.607 104.834 24.6143C104.349 24.5947 103.881 24.7877 103.551 25.1427C103.221 25.4978 103.062 25.9793 103.117 26.461V31.2217H101.469V23.1954H103.041V24.5615H103.079C103.298 23.6821 104.104 23.0768 105.01 23.1114ZM96.3036 24.4542C94.9686 24.4542 94.1756 25.4844 94.1756 27.209C94.1756 28.9483 94.9686 29.9629 96.3036 29.9629C97.6386 29.9629 98.4325 28.9483 98.4325 27.209C98.4325 25.4766 97.6386 24.4542 96.3036 24.4542ZM61.2841 24.5156C60.0253 24.5156 59.1786 25.6065 59.1786 27.209C59.1786 28.8262 60.0253 29.9093 61.2841 29.9093C62.5654 29.9093 63.4052 28.8487 63.4052 27.209C63.4052 25.584 62.5654 24.5156 61.2841 24.5156ZM70.1182 24.5156C68.8594 24.5156 68.0127 25.6065 68.0127 27.209C68.0127 28.8262 68.8594 29.9093 70.1182 29.9093C71.3995 29.9093 72.2393 28.8487 72.2393 27.209C72.2393 25.584 71.3995 24.5156 70.1182 24.5156ZM51.625 22.0439H51.5791L49.9385 26.8731H53.2647L51.625 22.0439ZM109.645 24.4317C109.103 24.4284 108.582 24.6418 108.198 25.0243C107.814 25.4069 107.599 25.9269 107.601 26.4688H111.613C111.643 25.9318 111.448 25.4068 111.074 25.0201C110.7 24.6334 110.182 24.4201 109.645 24.4317Z" fill="black"/>
</svg>
