<svg width="118" height="50" viewBox="0 0 118 50" fill="none" xmlns="http://www.w3.org/2000/svg">
<path d="M76.6611 40.8873L83.5583 39.3145C85.4206 45.127 93.8703 45.5325 94.4451 42.3221C94.8846 38.1993 87.2539 37.6453 85.4206 37.2112C80.9829 36.1608 77.4719 33.9704 77.4719 29.0507C77.4719 22.924 83.9108 20.7617 89.233 20.7617C94.5551 20.7617 99.8208 23.8707 101.805 28.1321L95.3455 29.874C93.0048 24.8999 84.1331 24.8846 84.1331 28.1321C84.1331 33.4191 102.075 30.1592 102.075 39.9681C102.075 42.5269 100.84 44.6891 98.3711 46.4538C95.9016 48.2198 92.9007 49.1018 89.3682 49.1018C85.8358 49.1018 82.8882 48.3638 80.6358 46.8856C78.3827 45.4089 77.0581 43.4089 76.6618 40.8866L76.6611 40.8873Z" fill="white"/>
<path fill-rule="evenodd" clip-rule="evenodd" d="M58.8119 26.013C56.0161 22.5847 52.4804 20.7633 47.7642 20.7633V20.7627C43.6767 20.7627 40.2522 22.1191 37.4931 24.8302C34.7334 27.5424 33.3535 30.9085 33.3535 34.9328C33.3535 38.957 34.7594 42.3243 37.5717 45.0354C40.3835 47.7476 43.8683 49.1028 48.0262 49.1028C53.7609 49.1028 57.2928 47.0433 59.4129 45.0244L55.3745 40.6518C50.1748 44.3363 41.2314 43.3126 40.6266 37.9767H61.8608C61.8608 34.187 61.6065 29.4425 58.8119 26.013ZM40.6266 32.4598C41.311 28.3823 44.3468 26.4474 48.5268 26.74C51.9388 26.74 54.5132 29.7446 55.0266 32.4693L40.6266 32.4598Z" fill="white"/>
<path d="M113.78 49.8538L110.258 47.4699C107.024 45.2805 105.086 41.629 105.086 37.723V21.5137L113.78 21.5137V49.8538Z" fill="white"/>
<path d="M25.1283 23.3971C27.1646 25.5252 27.7494 28.5465 28.665 31.4768L33.4946 49.0586H24.8414L20.4855 32.6977C18.4711 24.0289 8.65321 26.0435 8.65321 30.9823V49.0555H0L0 16.6561C0 12.7594 1.92873 9.11517 5.15097 6.92379L8.65321 4.54199V24.2829C17.0061 18.473 23.0907 21.2696 25.1283 23.3965V23.3971Z" fill="white"/>
<path d="M73.2328 49.3935L69.9433 47.0307C66.8651 44.8197 65.04 41.2615 65.04 37.4715L65.04 4.38867H73.2328L73.2328 49.3935Z" fill="white"/>
<path d="M108.726 0.514525L108.686 0.37804C107.546 8.89539 84.4478 16.7471 84.4478 16.7471L84.471 16.7376C91.161 14.6846 107.185 10.1953 109.159 17.7976C110.085 8.66715 117.941 4.24451 117.941 4.24451C117.941 4.24451 109.34 6.37235 108.725 0.514518L108.726 0.514525Z" fill="#53E785"/>
</svg>
