<svg width="164" height="49" viewBox="0 0 164 49" fill="none" xmlns="http://www.w3.org/2000/svg">
<g clip-path="url(#clip0_121_239)">
<path d="M158.165 48.5926H5.74486C2.57784 48.5926 0 46.0075 0 42.8429V5.74121C0 2.57541 2.57784 0 5.74486 0H158.165C161.331 0 164 2.57541 164 5.74121V42.8429C164 46.0075 161.331 48.5926 158.165 48.5926Z" fill="#A6A6A6"/>
<path d="M162.824 42.844C162.824 45.4145 160.742 47.4967 158.166 47.4967H5.74473C3.17054 47.4967 1.08105 45.4145 1.08105 42.844V5.73987C1.08105 3.17054 3.17054 1.08105 5.74473 1.08105H158.165C160.742 1.08105 162.823 3.17054 162.823 5.73987L162.824 42.844Z" fill="black"/>
<path d="M36.6002 24.0348C36.565 20.1195 39.8061 18.2147 39.9543 18.126C38.1187 15.4497 35.2736 15.0841 34.2738 15.0549C31.8843 14.8035 29.5664 16.4848 28.3492 16.4848C27.1076 16.4848 25.2332 15.0792 23.2129 15.1205C20.6132 15.1606 18.1812 16.6658 16.8473 19.0031C14.0945 23.7688 16.1476 30.7722 18.7849 34.6244C20.1042 36.511 21.6458 38.6175 23.6636 38.5434C25.6377 38.462 26.3751 37.2848 28.7573 37.2848C31.1177 37.2848 31.8102 38.5434 33.8681 38.496C35.9867 38.462 37.3206 36.6009 38.5937 34.6973C40.1183 32.5349 40.7306 30.4053 40.7549 30.296C40.705 30.279 36.6403 28.7277 36.6002 24.0348Z" fill="white"/>
<path d="M32.7128 12.5201C33.7746 11.1923 34.501 9.38589 34.2994 7.55273C32.7626 7.62076 30.8408 8.6157 29.7341 9.91433C28.755 11.0587 27.8803 12.9344 28.1063 14.6983C29.8325 14.827 31.6049 13.8273 32.7128 12.5201Z" fill="white"/>
<path d="M65.169 38.2722H62.4101L60.8989 33.5235H55.646L54.2065 38.2722H51.5205L56.7248 22.1055H59.9392L65.169 38.2722ZM60.4433 31.5312L59.0767 27.3097C58.9321 26.8785 58.6612 25.8629 58.2615 24.2642H58.2129C58.0538 24.9518 57.7975 25.9674 57.4452 27.3097L56.1028 31.5312H60.4433Z" fill="white"/>
<path d="M78.5523 32.2997C78.5523 34.2822 78.0165 35.8493 76.9451 36.9998C75.9854 38.0239 74.7936 38.5353 73.3711 38.5353C71.8356 38.5353 70.7325 37.9838 70.0607 36.8807H70.0121V43.0216H67.4221V30.4519C67.4221 29.2055 67.3893 27.9263 67.3262 26.6143H69.6039L69.7485 28.4621H69.7971C70.6608 27.0699 71.9716 26.375 73.7307 26.375C75.1058 26.375 76.2538 26.918 77.1722 28.0053C78.0931 29.0938 78.5523 30.5248 78.5523 32.2997ZM75.9137 32.3944C75.9137 31.2598 75.6586 30.3244 75.1459 29.5882C74.5859 28.8204 73.8339 28.4365 72.8912 28.4365C72.2522 28.4365 71.6716 28.6503 71.1528 29.0719C70.6329 29.4971 70.2927 30.0522 70.1336 30.7398C70.0534 31.0605 70.0133 31.3229 70.0133 31.5295V33.4732C70.0133 34.3211 70.2733 35.0366 70.7933 35.621C71.3132 36.2053 71.9886 36.4968 72.8196 36.4968C73.7951 36.4968 74.5543 36.1202 75.0973 35.3695C75.6416 34.6175 75.9137 33.6262 75.9137 32.3944Z" fill="white"/>
<path d="M91.9602 32.2997C91.9602 34.2822 91.4245 35.8493 90.3518 36.9998C89.3933 38.0239 88.2016 38.5353 86.7791 38.5353C85.2435 38.5353 84.1405 37.9838 83.4699 36.8807H83.4213V43.0216H80.8313V30.4519C80.8313 29.2055 80.7985 27.9263 80.7354 26.6143H83.0131L83.1577 28.4621H83.2063C84.0688 27.0699 85.3796 26.375 87.1399 26.375C88.5138 26.375 89.6618 26.918 90.5826 28.0053C91.4998 29.0938 91.9602 30.5248 91.9602 32.2997ZM89.3217 32.3944C89.3217 31.2598 89.0653 30.3244 88.5527 29.5882C87.9927 28.8204 87.2431 28.4365 86.2992 28.4365C85.659 28.4365 85.0795 28.6503 84.5596 29.0719C84.0397 29.4971 83.7007 30.0522 83.5416 30.7398C83.4626 31.0605 83.4213 31.3229 83.4213 31.5295V33.4732C83.4213 34.3211 83.6813 35.0366 84.1988 35.621C84.7187 36.2041 85.3942 36.4968 86.2275 36.4968C87.203 36.4968 87.9623 36.1202 88.5053 35.3695C89.0495 34.6175 89.3217 33.6262 89.3217 32.3944Z" fill="white"/>
<path d="M106.951 33.7381C106.951 35.1133 106.474 36.2321 105.515 37.0959C104.462 38.0398 102.996 38.5111 101.112 38.5111C99.3722 38.5111 97.9775 38.1758 96.9219 37.504L97.522 35.3453C98.6591 36.0329 99.9067 36.3779 101.266 36.3779C102.242 36.3779 103.001 36.1568 103.546 35.7171C104.089 35.2773 104.36 34.6869 104.36 33.9507C104.36 33.2947 104.137 32.742 103.688 32.2937C103.243 31.8454 102.498 31.4288 101.458 31.0437C98.6275 29.988 97.2134 28.4415 97.2134 26.4079C97.2134 25.0789 97.7091 23.9892 98.7016 23.1413C99.6904 22.2921 101.01 21.8682 102.659 21.8682C104.131 21.8682 105.353 22.1245 106.328 22.6359L105.681 24.7473C104.77 24.2516 103.739 24.0038 102.587 24.0038C101.675 24.0038 100.964 24.2286 100.453 24.6756C100.022 25.0753 99.8058 25.5624 99.8058 26.1395C99.8058 26.7784 100.052 27.3069 100.548 27.7224C100.979 28.1062 101.763 28.5217 102.9 28.97C104.291 29.53 105.313 30.1848 105.97 30.9355C106.625 31.6839 106.951 32.6205 106.951 33.7381Z" fill="white"/>
<path d="M115.514 28.5573H112.66V34.2171C112.66 35.6567 113.163 36.3759 114.171 36.3759C114.634 36.3759 115.018 36.3358 115.321 36.2556L115.393 38.2224C114.883 38.4131 114.211 38.5091 113.379 38.5091C112.356 38.5091 111.557 38.1969 110.98 37.5737C110.405 36.9493 110.116 35.9021 110.116 34.4309V28.5549H108.415V26.6112H110.116V24.4767L112.66 23.709V26.6112H115.514V28.5573Z" fill="white"/>
<path d="M128.396 32.3468C128.396 34.1386 127.883 35.6098 126.86 36.7602C125.787 37.9447 124.364 38.5351 122.589 38.5351C120.878 38.5351 119.516 37.9677 118.501 36.8331C117.485 35.6985 116.978 34.2662 116.978 32.5399C116.978 30.7335 117.5 29.2539 118.548 28.1034C119.594 26.9518 121.006 26.376 122.781 26.376C124.491 26.376 125.868 26.9433 126.906 28.0791C127.9 29.181 128.396 30.6035 128.396 32.3468ZM125.708 32.4306C125.708 31.3555 125.479 30.4335 125.014 29.6645C124.471 28.7339 123.694 28.2699 122.688 28.2699C121.647 28.2699 120.856 28.7351 120.313 29.6645C119.848 30.4347 119.619 31.3713 119.619 32.4792C119.619 33.5543 119.848 34.4764 120.313 35.2441C120.873 36.1747 121.656 36.6387 122.665 36.6387C123.654 36.6387 124.43 36.165 124.99 35.2198C125.468 34.4363 125.708 33.5045 125.708 32.4306Z" fill="white"/>
<path d="M136.814 28.8921C136.558 28.8447 136.284 28.8204 135.998 28.8204C135.087 28.8204 134.382 29.1642 133.886 29.853C133.455 30.4604 133.239 31.2282 133.239 32.1551V38.2717H130.65L130.674 30.2855C130.674 28.9419 130.642 27.7186 130.577 26.6155H132.833L132.928 28.8459H132.999C133.273 28.0794 133.704 27.4623 134.294 26.9994C134.872 26.5827 135.495 26.375 136.167 26.375C136.406 26.375 136.622 26.392 136.814 26.4224V28.8921Z" fill="white"/>
<path d="M148.397 31.8919C148.397 32.3559 148.367 32.7471 148.302 33.0666H140.532C140.563 34.2182 140.938 35.099 141.66 35.7064C142.314 36.2494 143.161 36.5215 144.201 36.5215C145.352 36.5215 146.401 36.3381 147.345 35.97L147.751 37.7679C146.648 38.249 145.345 38.4883 143.843 38.4883C142.035 38.4883 140.616 37.9562 139.584 36.8932C138.553 35.8303 138.037 34.4029 138.037 32.6122C138.037 30.8544 138.517 29.3906 139.478 28.2231C140.484 26.9767 141.843 26.3535 143.554 26.3535C145.234 26.3535 146.506 26.9767 147.369 28.2231C148.053 29.2132 148.397 30.4377 148.397 31.8919ZM145.927 31.2201C145.944 30.4523 145.775 29.789 145.424 29.229C144.976 28.5086 144.287 28.149 143.36 28.149C142.514 28.149 141.825 28.5001 141.299 29.2047C140.868 29.7647 140.611 30.4365 140.532 31.2188L145.927 31.2201Z" fill="white"/>
<path d="M59.587 12.1589C59.587 13.5887 59.1582 14.665 58.3017 15.3878C57.5085 16.0548 56.3811 16.3889 54.9209 16.3889C54.1969 16.3889 53.5773 16.3573 53.0586 16.2941V8.48162C53.7352 8.37229 54.4641 8.31641 55.2513 8.31641C56.6423 8.31641 57.6907 8.61889 58.3977 9.22387C59.1898 9.90781 59.587 10.8857 59.587 12.1589ZM58.2446 12.1941C58.2446 11.2672 57.9992 10.5565 57.5085 10.0609C57.0177 9.56645 56.3009 9.31863 55.357 9.31863C54.9561 9.31863 54.6148 9.34535 54.3317 9.40124V15.3405C54.4884 15.3648 54.7751 15.3757 55.1918 15.3757C56.1661 15.3757 56.9181 15.1048 57.4477 14.563C57.9774 14.0212 58.2446 13.2315 58.2446 12.1941Z" fill="white"/>
<path d="M66.7045 13.4081C66.7045 14.2889 66.453 15.0105 65.9501 15.5766C65.4229 16.1585 64.7244 16.4488 63.8521 16.4488C63.0115 16.4488 62.3421 16.1706 61.8428 15.6118C61.3447 15.0542 61.0957 14.3508 61.0957 13.5029C61.0957 12.6161 61.352 11.8884 61.8671 11.3235C62.3822 10.7586 63.0746 10.4756 63.9469 10.4756C64.7875 10.4756 65.463 10.7538 65.9744 11.3114C66.4603 11.8532 66.7045 12.5529 66.7045 13.4081ZM65.384 13.4495C65.384 12.921 65.2698 12.4679 65.0426 12.0901C64.7754 11.6333 64.3951 11.4049 63.9007 11.4049C63.3893 11.4049 63.0005 11.6333 62.7333 12.0901C62.5049 12.4679 62.3919 12.9283 62.3919 13.4725C62.3919 14.001 62.5061 14.4541 62.7333 14.8319C63.009 15.2887 63.3929 15.5171 63.8886 15.5171C64.3745 15.5171 64.7559 15.285 65.0305 14.8198C65.2662 14.4347 65.384 13.9779 65.384 13.4495Z" fill="white"/>
<path d="M76.2484 10.5918L74.4565 16.3184H73.2903L72.548 13.8317C72.3597 13.2109 72.2067 12.5938 72.0876 11.9815H72.0645C71.954 12.6108 71.8009 13.2267 71.6041 13.8317L70.8157 16.3184H69.6361L67.9512 10.5918H69.2595L69.907 13.3142C70.0637 13.958 70.1925 14.5715 70.2958 15.1522H70.3188C70.4136 14.6736 70.5703 14.0637 70.7914 13.3263L71.6041 10.593H72.6416L73.4203 13.268C73.6086 13.9204 73.7616 14.5484 73.8795 15.1534H73.9147C74.001 14.5642 74.1309 13.9362 74.3034 13.268L74.9983 10.593H76.2484V10.5918Z" fill="white"/>
<path d="M82.8487 16.3186H81.5756V13.0386C81.5756 12.0279 81.1917 11.5225 80.4215 11.5225C80.0437 11.5225 79.7388 11.661 79.5019 11.9392C79.2674 12.2174 79.1484 12.5454 79.1484 12.9207V16.3174H77.8753V12.2283C77.8753 11.7254 77.8595 11.1799 77.8291 10.5895H78.9479L79.0075 11.4848H79.0427C79.1909 11.2066 79.412 10.977 79.7023 10.7936C80.0474 10.5798 80.4337 10.4717 80.8564 10.4717C81.3909 10.4717 81.8356 10.6442 82.1891 10.9904C82.6288 11.4144 82.8487 12.0473 82.8487 12.8879V16.3186Z" fill="white"/>
<path d="M86.3598 16.3181H85.0879V7.96387H86.3598V16.3181Z" fill="white"/>
<path d="M93.8549 13.4081C93.8549 14.2889 93.6034 15.0105 93.1005 15.5766C92.5733 16.1585 91.8735 16.4488 91.0025 16.4488C90.1606 16.4488 89.4913 16.1706 88.9932 15.6118C88.4951 15.0542 88.2461 14.3508 88.2461 13.5029C88.2461 12.6161 88.5024 11.8884 89.0175 11.3235C89.5326 10.7586 90.225 10.4756 91.0961 10.4756C91.9379 10.4756 92.6121 10.7538 93.1248 11.3114C93.6107 11.8532 93.8549 12.5529 93.8549 13.4081ZM92.5332 13.4495C92.5332 12.921 92.419 12.4679 92.1918 12.0901C91.9258 11.6333 91.5443 11.4049 91.0511 11.4049C90.5384 11.4049 90.1497 11.6333 89.8837 12.0901C89.6553 12.4679 89.5423 12.9283 89.5423 13.4725C89.5423 14.001 89.6565 14.4541 89.8837 14.8319C90.1594 15.2887 90.5433 15.5171 91.039 15.5171C91.5249 15.5171 91.9051 15.285 92.1797 14.8198C92.4166 14.4347 92.5332 13.9779 92.5332 13.4495Z" fill="white"/>
<path d="M100.017 16.3188H98.8736L98.7789 15.6592H98.7436C98.3525 16.1852 97.7949 16.4488 97.0708 16.4488C96.5302 16.4488 96.0929 16.2751 95.7637 15.9301C95.4649 15.6167 95.3154 15.2267 95.3154 14.7639C95.3154 14.0641 95.607 13.5308 96.1937 13.1615C96.7793 12.7922 97.6029 12.6112 98.6635 12.6197V12.5128C98.6635 11.7584 98.2674 11.3818 97.4742 11.3818C96.9093 11.3818 96.4112 11.524 95.9812 11.8058L95.7224 10.97C96.2545 10.6408 96.9117 10.4756 97.6868 10.4756C99.1834 10.4756 99.9342 11.2652 99.9342 12.8445V14.9534C99.9342 15.5256 99.9621 15.9811 100.017 16.3188ZM98.695 14.3508V13.4677C97.2907 13.4434 96.5886 13.8285 96.5886 14.6217C96.5886 14.9206 96.6687 15.1441 96.8327 15.2935C96.9967 15.443 97.2057 15.5171 97.4547 15.5171C97.7341 15.5171 97.9953 15.4284 98.2334 15.2522C98.4727 15.0749 98.6197 14.8501 98.6744 14.5744C98.6878 14.5124 98.695 14.4371 98.695 14.3508Z" fill="white"/>
<path d="M107.251 16.3181H106.121L106.062 15.3985H106.026C105.666 16.0983 105.051 16.4481 104.187 16.4481C103.497 16.4481 102.922 16.1772 102.467 15.6354C102.011 15.0936 101.784 14.3902 101.784 13.5265C101.784 12.5996 102.031 11.8488 102.526 11.2755C103.006 10.7409 103.594 10.4737 104.294 10.4737C105.063 10.4737 105.601 10.7324 105.907 11.2512H105.932V7.96387H107.206V14.7753C107.206 15.3329 107.22 15.8468 107.251 16.3181ZM105.932 13.9031V12.9483C105.932 12.783 105.919 12.6494 105.896 12.5474C105.825 12.2412 105.67 11.9837 105.436 11.776C105.199 11.5682 104.914 11.4637 104.584 11.4637C104.109 11.4637 103.738 11.652 103.464 12.0299C103.193 12.4077 103.056 12.8899 103.056 13.4791C103.056 14.0452 103.186 14.5044 103.447 14.8579C103.723 15.2345 104.095 15.4228 104.56 15.4228C104.978 15.4228 105.312 15.2661 105.566 14.9515C105.811 14.6611 105.932 14.3113 105.932 13.9031Z" fill="white"/>
<path d="M118.139 13.4081C118.139 14.2889 117.888 15.0105 117.385 15.5766C116.857 16.1585 116.16 16.4488 115.287 16.4488C114.447 16.4488 113.778 16.1706 113.277 15.6118C112.779 15.0542 112.53 14.3508 112.53 13.5029C112.53 12.6161 112.787 11.8884 113.302 11.3235C113.817 10.7586 114.509 10.4756 115.383 10.4756C116.222 10.4756 116.899 10.7538 117.409 11.3114C117.895 11.8532 118.139 12.5529 118.139 13.4081ZM116.82 13.4495C116.82 12.921 116.706 12.4679 116.478 12.0901C116.21 11.6333 115.831 11.4049 115.335 11.4049C114.825 11.4049 114.436 11.6333 114.168 12.0901C113.939 12.4679 113.826 12.9283 113.826 13.4725C113.826 14.001 113.941 14.4541 114.168 14.8319C114.444 15.2887 114.827 15.5171 115.323 15.5171C115.809 15.5171 116.192 15.285 116.466 14.8198C116.701 14.4347 116.82 13.9779 116.82 13.4495Z" fill="white"/>
<path d="M124.984 16.3186H123.712V13.0386C123.712 12.0279 123.328 11.5225 122.557 11.5225C122.179 11.5225 121.874 11.661 121.639 11.9392C121.403 12.2174 121.285 12.5454 121.285 12.9207V16.3174H120.011V12.2283C120.011 11.7254 119.996 11.1799 119.966 10.5895H121.083L121.143 11.4848H121.178C121.328 11.2066 121.549 10.977 121.838 10.7936C122.184 10.5798 122.569 10.4717 122.993 10.4717C123.526 10.4717 123.971 10.6442 124.325 10.9904C124.766 11.4144 124.984 12.0473 124.984 12.8879V16.3186Z" fill="white"/>
<path d="M133.552 11.5458H132.15V14.3278C132.15 15.0348 132.399 15.3883 132.893 15.3883C133.121 15.3883 133.31 15.3689 133.46 15.3288L133.493 16.2945C133.241 16.3893 132.911 16.4367 132.504 16.4367C132.001 16.4367 131.61 16.2836 131.327 15.9775C131.042 15.6713 130.901 15.1563 130.901 14.4335V11.5458H130.064V10.5922H130.901V9.54261L132.149 9.16602V10.591H133.551L133.552 11.5458Z" fill="white"/>
<path d="M140.293 16.3181H139.018V13.0624C139.018 12.0359 138.635 11.5221 137.866 11.5221C137.275 11.5221 136.872 11.8197 136.651 12.4149C136.613 12.5401 136.591 12.6931 136.591 12.8729V16.3169H135.319V7.96387H136.591V11.4152H136.616C137.016 10.7871 137.591 10.4737 138.336 10.4737C138.863 10.4737 139.299 10.6462 139.645 10.9924C140.077 11.4237 140.293 12.0651 140.293 12.913V16.3181Z" fill="white"/>
<path d="M147.245 13.1838C147.245 13.4122 147.228 13.6042 147.197 13.7609H143.379C143.396 14.327 143.578 14.7582 143.932 15.0571C144.255 15.3243 144.672 15.458 145.182 15.458C145.747 15.458 146.262 15.3681 146.726 15.1871L146.925 16.0715C146.382 16.3071 145.743 16.425 145.003 16.425C144.116 16.425 143.418 16.1638 142.913 15.6414C142.405 15.119 142.153 14.4181 142.153 13.5386C142.153 12.6748 142.388 11.9557 142.86 11.3823C143.354 10.77 144.02 10.4639 144.862 10.4639C145.686 10.4639 146.312 10.77 146.734 11.3823C147.076 11.8682 147.245 12.4695 147.245 13.1838ZM146.03 12.8546C146.04 12.4768 145.956 12.1512 145.783 11.8767C145.562 11.5232 145.226 11.3458 144.77 11.3458C144.355 11.3458 144.016 11.5183 143.757 11.8645C143.545 12.1403 143.42 12.4695 143.379 12.8546H146.03Z" fill="white"/>
</g>
<defs>
<clipPath id="clip0_121_239">
<rect width="164" height="48.5926" fill="white"/>
</clipPath>
</defs>
</svg>
