<svg width="144" height="44" viewBox="0 0 144 44" fill="none" xmlns="http://www.w3.org/2000/svg">
<rect x="0.417786" y="0.761475" width="143.582" height="42.9358" rx="21.4679" fill="white"/>
<path fill-rule="evenodd" clip-rule="evenodd" d="M28.3758 12.1023C28.1391 12.3528 27.9999 12.7409 27.9999 13.2445V31.2217C27.9999 31.7253 28.1391 32.1133 28.3758 32.3639L28.436 32.4224L38.5066 22.3518V22.1143L28.436 12.0437L28.3758 12.1023Z" fill="#00D7FE"/>
<mask id="mask0_145_6572" style="mask-type:alpha" maskUnits="userSpaceOnUse" x="38" y="18" width="9" height="8">
<path d="M41.8616 25.7101L38.5058 22.3519V22.1144L41.8632 18.757L45.9162 21.0592C47.0519 21.7052 47.0519 22.7611 45.9162 23.4062L41.9389 25.6662L41.8616 25.7101Z" fill="white"/>
</mask>
<g mask="url(#mask0_145_6572)">
<path fill-rule="evenodd" clip-rule="evenodd" d="M41.8616 25.7101L38.5058 22.3519V22.1144L41.8632 18.757L45.9162 21.0592C47.0519 21.7052 47.0519 22.7611 45.9162 23.4062L41.9389 25.6662L41.8616 25.7101Z" fill="url(#paint0_linear_145_6572)"/>
</g>
<mask id="mask1_145_6572" style="mask-type:alpha" maskUnits="userSpaceOnUse" x="28" y="22" width="14" height="11">
<path d="M41.9388 25.6662L38.5057 22.2332L28.3749 32.364C28.75 32.7601 29.3683 32.809 30.0646 32.4136L41.9388 25.6662Z" fill="white"/>
</mask>
<g mask="url(#mask1_145_6572)">
<path fill-rule="evenodd" clip-rule="evenodd" d="M41.9388 25.6662L38.5057 22.2332L28.3749 32.364C28.75 32.7601 29.3683 32.809 30.0646 32.4136L41.9388 25.6662Z" fill="url(#paint1_linear_145_6572)"/>
</g>
<mask id="mask2_145_6572" style="mask-type:alpha" maskUnits="userSpaceOnUse" x="28" y="11" width="14" height="12">
<path d="M41.9388 18.8001L30.0646 12.0527C29.3683 11.6573 28.75 11.7061 28.3749 12.1023L38.5057 22.2331L41.9388 18.8001Z" fill="white"/>
</mask>
<g mask="url(#mask2_145_6572)">
<path fill-rule="evenodd" clip-rule="evenodd" d="M41.9388 18.8001L30.0646 12.0527C29.3683 11.6573 28.75 11.7061 28.3749 12.1023L38.5057 22.2331L41.9388 18.8001Z" fill="url(#paint2_linear_145_6572)"/>
</g>
<path fill-rule="evenodd" clip-rule="evenodd" d="M105.221 31.1436H106.739V20.9738H105.221V31.1436ZM118.894 24.6371L117.154 29.0464H117.102L115.296 24.6371H113.661L116.369 30.7995L114.825 34.2277H116.409L120.582 24.6371H118.894ZM110.286 29.9884C109.788 29.9884 109.095 29.7403 109.095 29.1253C109.095 28.3402 109.959 28.0392 110.704 28.0392C111.372 28.0392 111.685 28.1832 112.091 28.3793C111.973 29.3214 111.162 29.9884 110.286 29.9884ZM110.469 24.415C109.37 24.415 108.231 24.899 107.76 25.9721L109.108 26.5342C109.396 25.9721 109.932 25.7882 110.495 25.7882C111.28 25.7882 112.078 26.2592 112.091 27.0972V27.2013C111.816 27.0443 111.228 26.8092 110.508 26.8092C109.056 26.8092 107.577 27.6073 107.577 29.0984C107.577 30.4595 108.768 31.3364 110.102 31.3364C111.123 31.3364 111.685 30.8784 112.039 30.3415H112.091V31.1266H113.556V27.2282C113.556 25.4221 112.209 24.415 110.469 24.415ZM101.087 25.8753H98.928V22.3893H101.087C102.222 22.3893 102.866 23.3289 102.866 24.1319C102.866 24.9202 102.222 25.8753 101.087 25.8753ZM101.048 20.9738H97.4108V31.1436H98.928V27.2908H101.048C102.73 27.2908 104.384 26.0721 104.384 24.1319C104.384 22.1916 102.73 20.9738 101.048 20.9738ZM81.2135 29.9901C80.1649 29.9901 79.2871 29.1123 79.2871 27.9066C79.2871 26.688 80.1649 25.7964 81.2135 25.7964C82.2491 25.7964 83.061 26.688 83.061 27.9066C83.061 29.1123 82.2491 29.9901 81.2135 29.9901ZM82.9561 25.2066H82.904C82.5632 24.8006 81.9083 24.4337 81.0825 24.4337C79.3522 24.4337 77.7666 25.9534 77.7666 27.9066C77.7666 29.8461 79.3522 31.3535 81.0825 31.3535C81.9083 31.3535 82.5632 30.9866 82.904 30.5669H82.9561V31.0647C82.9561 32.3891 82.2491 33.0969 81.1086 33.0969C80.1779 33.0969 79.6011 32.4282 79.3652 31.8644L78.0416 32.4152C78.4215 33.3328 79.4311 34.4596 81.1086 34.4596C82.891 34.4596 84.3985 33.4109 84.3985 30.8557V24.6428H82.9561V25.2066ZM85.4471 31.1436H86.9676V20.973H85.4471V31.1436ZM89.208 27.7887C89.169 26.4521 90.2436 25.7703 91.0165 25.7703C91.6201 25.7703 92.131 26.0713 92.301 26.5041L89.208 27.7887ZM93.9264 26.6351C93.6385 25.8622 92.7599 24.4337 90.9644 24.4337C89.182 24.4337 87.7014 25.8354 87.7014 27.8936C87.7014 29.8331 89.169 31.3535 91.1344 31.3535C92.7208 31.3535 93.6385 30.3838 94.0184 29.82L92.8388 29.0334C92.4458 29.6101 91.9081 29.9901 91.1344 29.9901C90.3616 29.9901 89.8108 29.6362 89.4569 28.9422L94.0835 27.0288L93.9264 26.6351ZM57.0674 25.4954V26.9629H60.5793C60.4744 27.7887 60.1994 28.3915 59.7804 28.8113C59.2687 29.3222 58.4691 29.8851 57.0674 29.8851C54.905 29.8851 53.2137 28.1426 53.2137 25.9802C53.2137 23.8171 54.905 22.0745 57.0674 22.0745C58.2339 22.0745 59.0857 22.5333 59.7146 23.1231L60.7502 22.0875C59.8716 21.2488 58.7058 20.6061 57.0674 20.6061C54.1053 20.6061 51.6151 23.0182 51.6151 25.9802C51.6151 28.9422 54.1053 31.3535 57.0674 31.3535C58.6659 31.3535 59.8716 30.8296 60.8153 29.8461C61.785 28.8764 62.0868 27.5137 62.0868 26.4122C62.0868 26.0713 62.0608 25.7573 62.0079 25.4954H57.0674ZM66.0804 29.9901C65.0317 29.9901 64.1271 29.1253 64.1271 27.8936C64.1271 26.6481 65.0317 25.7964 66.0804 25.7964C67.1282 25.7964 68.0328 26.6481 68.0328 27.8936C68.0328 29.1253 67.1282 29.9901 66.0804 29.9901ZM66.0804 24.4337C64.1662 24.4337 62.6066 25.8883 62.6066 27.8936C62.6066 29.8851 64.1662 31.3535 66.0804 31.3535C67.9938 31.3535 69.5533 29.8851 69.5533 27.8936C69.5533 25.8883 67.9938 24.4337 66.0804 24.4337ZM73.6567 29.9901C72.6081 29.9901 71.7034 29.1253 71.7034 27.8936C71.7034 26.6481 72.6081 25.7964 73.6567 25.7964C74.7053 25.7964 75.6092 26.6481 75.6092 27.8936C75.6092 29.1253 74.7053 29.9901 73.6567 29.9901ZM73.6567 24.4337C71.7433 24.4337 70.1838 25.8883 70.1838 27.8936C70.1838 29.8851 71.7433 31.3535 73.6567 31.3535C75.5701 31.3535 77.1296 29.8851 77.1296 27.8936C77.1296 25.8883 75.5701 24.4337 73.6567 24.4337Z" fill="black"/>
<path d="M56.066 14.4384V16.3439C56.0016 16.4392 55.8992 16.5464 55.7585 16.6656C55.6179 16.7824 55.4237 16.8849 55.1758 16.9731C54.9303 17.0589 54.6133 17.1018 54.2248 17.1018C53.9079 17.1018 53.6159 17.047 53.349 16.9373C53.0844 16.8253 52.8544 16.6632 52.659 16.4511C52.4659 16.2366 52.3158 15.9768 52.2085 15.6718C52.1036 15.3643 52.0512 15.0163 52.0512 14.6278V14.2239C52.0512 13.8354 52.0965 13.4886 52.1871 13.1835C52.28 12.8784 52.4159 12.6199 52.5946 12.4077C52.7734 12.1932 52.9926 12.0312 53.2524 11.9215C53.5122 11.8095 53.8101 11.7535 54.1462 11.7535C54.5442 11.7535 54.8767 11.8226 55.1436 11.9609C55.4129 12.0967 55.6227 12.285 55.7728 12.5257C55.9254 12.7664 56.0231 13.0405 56.066 13.348H55.376C55.345 13.1597 55.2831 12.9881 55.1901 12.8332C55.0995 12.6782 54.9696 12.5543 54.8004 12.4614C54.6312 12.366 54.4131 12.3184 54.1462 12.3184C53.9055 12.3184 53.6969 12.3624 53.5206 12.4506C53.3442 12.5388 53.1988 12.6651 53.0844 12.8296C52.97 12.994 52.8842 13.1931 52.827 13.4266C52.7722 13.6602 52.7448 13.9236 52.7448 14.2167V14.6278C52.7448 14.9281 52.7793 15.1963 52.8484 15.4322C52.9199 15.6682 53.0212 15.8696 53.1523 16.0364C53.2834 16.2009 53.4395 16.326 53.6207 16.4118C53.8042 16.4976 54.0068 16.5405 54.2284 16.5405C54.4739 16.5405 54.6729 16.5202 54.8254 16.4797C54.978 16.4368 55.0972 16.3868 55.183 16.3296C55.2688 16.27 55.3343 16.214 55.3796 16.1615V14.9961H54.1748V14.4384H56.066ZM60.2973 16.469V17.0303H57.5409V16.469H60.2973ZM57.6803 11.825V17.0303H56.9904V11.825H57.6803ZM59.9326 14.063V14.6243H57.5409V14.063H59.9326ZM60.2615 11.825V12.3899H57.5409V11.825H60.2615ZM62.9269 11.825V17.0303H62.2477V11.825H62.9269ZM64.6001 11.825V12.3899H60.5781V11.825H64.6001ZM67.3461 11.825V17.0303H66.6562V11.825H67.3461ZM70.1975 11.825V17.0303H69.5182V11.825H70.1975ZM71.8706 11.825V12.3899H67.8486V11.825H71.8706ZM77.8842 14.2632V14.5921C77.8842 14.983 77.8354 15.3333 77.7377 15.6432C77.6399 15.953 77.4993 16.2164 77.3158 16.4332C77.1323 16.6501 76.9118 16.8158 76.6544 16.9302C76.3994 17.0446 76.1134 17.1018 75.7964 17.1018C75.489 17.1018 75.2065 17.0446 74.9491 16.9302C74.6941 16.8158 74.4725 16.6501 74.2842 16.4332C74.0983 16.2164 73.9541 15.953 73.8516 15.6432C73.7491 15.3333 73.6979 14.983 73.6979 14.5921V14.2632C73.6979 13.8723 73.7479 13.5231 73.848 13.2157C73.9505 12.9059 74.0947 12.6425 74.2806 12.4256C74.4665 12.2063 74.687 12.0395 74.942 11.9251C75.1994 11.8107 75.4818 11.7535 75.7893 11.7535C76.1063 11.7535 76.3923 11.8107 76.6473 11.9251C76.9047 12.0395 77.1251 12.2063 77.3087 12.4256C77.4946 12.6425 77.6364 12.9059 77.7341 13.2157C77.8342 13.5231 77.8842 13.8723 77.8842 14.2632ZM77.2014 14.5921V14.256C77.2014 13.9462 77.1692 13.6721 77.1049 13.4338C77.0429 13.1954 76.9512 12.9952 76.8296 12.8332C76.7081 12.6711 76.5591 12.5484 76.3827 12.4649C76.2087 12.3815 76.0109 12.3398 75.7893 12.3398C75.5748 12.3398 75.3805 12.3815 75.2065 12.4649C75.0349 12.5484 74.8872 12.6711 74.7632 12.8332C74.6417 12.9952 74.5475 13.1954 74.4808 13.4338C74.4141 13.6721 74.3807 13.9462 74.3807 14.256V14.5921C74.3807 14.9043 74.4141 15.1808 74.4808 15.4215C74.5475 15.6598 74.6429 15.8612 74.7668 16.0257C74.8931 16.1878 75.0421 16.3105 75.2137 16.3939C75.3877 16.4773 75.5819 16.519 75.7964 16.519C76.0205 16.519 76.2195 16.4773 76.3934 16.3939C76.5674 16.3105 76.714 16.1878 76.8332 16.0257C76.9547 15.8612 77.0465 15.6598 77.1085 15.4215C77.1704 15.1808 77.2014 14.9043 77.2014 14.5921ZM82.7018 11.825V17.0303H82.0083L79.3878 13.0155V17.0303H78.6978V11.825H79.3878L82.019 15.8505V11.825H82.7018Z" fill="#ACACAC"/>
<defs>
<linearGradient id="paint0_linear_145_6572" x1="45.1773" y1="22.2334" x2="38.5058" y2="22.2334" gradientUnits="userSpaceOnUse">
<stop stop-color="#FFBC00"/>
<stop offset="1" stop-color="#FFDA03"/>
</linearGradient>
<linearGradient id="paint1_linear_145_6572" x1="40.0731" y1="25.4635" x2="31.3655" y2="32.6408" gradientUnits="userSpaceOnUse">
<stop stop-color="#E22652"/>
<stop offset="1" stop-color="#FF3A44"/>
</linearGradient>
<linearGradient id="paint2_linear_145_6572" x1="29.909" y1="13.3219" x2="35.7145" y2="18.4267" gradientUnits="userSpaceOnUse">
<stop stop-color="#0ED574"/>
<stop offset="1" stop-color="#07F076"/>
</linearGradient>
</defs>
</svg>
