<svg width="115" height="122" viewBox="0 0 115 122" fill="none" xmlns="http://www.w3.org/2000/svg">
<g filter="url(#filter0_d_8_3797)">
<circle cx="24.5" cy="17.5" r="17.5" fill="#EDF4FF"/>
<circle cx="24.5" cy="17.5" r="17.5" fill="white"/>
</g>
<g clip-path="url(#clip0_8_3797)">
<path d="M33.7152 20.5442C33.7152 20.5442 30.5358 22.5151 24.5686 22.5151C18.6015 22.5151 15.1456 20.5442 15.1456 20.5442V21.6293C15.1456 21.6293 18.6015 23.6001 24.5686 23.6001C30.5358 23.6001 33.7152 21.6293 33.7152 21.6293V20.5442Z" fill="#4D6EF6"/>
<path d="M29.3254 25.0749C31.3494 24.7707 32.8101 23.4172 32.588 22.0518C32.3658 20.6864 30.5449 19.8261 28.5209 20.1303C26.4969 20.4345 25.0362 21.788 25.2583 23.1535C25.4805 24.5189 27.3014 25.3791 29.3254 25.0749Z" fill="#2B4096"/>
<path d="M23.8993 23.1657C24.1214 21.8003 22.6607 20.4468 20.6367 20.1426C18.6127 19.8384 16.7918 20.6987 16.5697 22.0641C16.3475 23.4295 17.8082 24.783 19.8323 25.0872C21.8563 25.3914 23.6772 24.5312 23.8993 23.1657Z" fill="#2B4096"/>
<path d="M29.1639 24.1133C30.4587 23.9187 31.4017 23.1046 31.2699 22.295C31.1382 21.4854 29.9817 20.9869 28.6869 21.1815C27.392 21.3762 26.4491 22.1902 26.5808 22.9998C26.7125 23.8094 27.869 24.3079 29.1639 24.1133Z" fill="#BEB6FF"/>
<path d="M22.5937 22.9984C22.7254 22.1889 21.7825 21.3748 20.4876 21.1802C19.1928 20.9855 18.0363 21.4841 17.9046 22.2936C17.7729 23.1032 18.7158 23.9173 20.0107 24.1119C21.3055 24.3065 22.462 23.808 22.5937 22.9984Z" fill="#BEB6FF"/>
<path d="M15.0772 17.599C15.0772 17.599 17.9341 18.529 21.6434 18.8833C21.5282 17.1782 20.9983 12.7715 18.464 10.0698C15.1924 12.86 15.0772 17.599 15.0772 17.599Z" fill="#4D6EF6"/>
<path d="M30.6054 10.0479C28.048 12.7495 27.5181 17.1784 27.4029 18.8835C31.0892 18.5071 33.923 17.5991 33.923 17.5991C33.9 16.5141 33.5544 12.5059 30.6054 10.0479Z" fill="#4D6EF6"/>
<path d="M24.4999 8.0769C21.7813 8.0769 19.846 8.89625 18.4636 10.0699C20.9979 12.7715 21.5278 17.1783 21.62 18.8834C22.5416 18.972 23.5092 19.0384 24.4999 19.0384C25.4906 19.0384 26.4582 18.972 27.3798 18.8834C27.495 17.1783 28.0249 12.7494 30.5823 10.0478C29.223 8.89625 27.2646 8.0769 24.4999 8.0769Z" fill="#2B4096"/>
</g>
<g filter="url(#filter1_d_8_3797)">
<circle cx="90" cy="91" r="18" fill="white"/>
</g>
<g clip-path="url(#clip1_8_3797)">
<path d="M90.0005 90.6059H86.1613L86.5141 82.6966C86.5556 81.9249 87.2404 81.3076 88.0705 81.3076C88.9006 81.3076 89.6062 81.9249 89.627 82.6966L90.0005 90.6059Z" fill="#BEB6FF"/>
<path d="M84.2304 97.0685C83.4418 97.0685 82.7777 96.4897 82.7154 95.7567L82.3211 90.6252H86.1604L85.7661 95.7567C85.6831 96.4897 85.019 97.0685 84.2304 97.0685Z" fill="#2B4096"/>
<path d="M97.6772 90.5094H93.838L94.2945 85.3201C94.3568 84.6063 95.0001 84.0662 95.7679 84.0662C96.5358 84.0662 97.1791 84.6063 97.2414 85.3201L97.6772 90.5094Z" fill="#446DFF"/>
<path d="M91.9296 99.7692C91.0372 99.7692 90.3109 99.1133 90.2901 98.3031L89.9996 90.6252H93.8388L93.5483 98.3031C93.5276 99.1133 92.8012 99.7692 91.9296 99.7692Z" fill="#2B4096"/>
<path d="M82.3004 90.6639H78.4612L78.7102 88.156C78.7932 87.3651 79.5195 86.7478 80.3704 86.7478C81.242 86.7478 81.9476 87.3651 82.0306 88.156L82.3004 90.6639Z" fill="#446DFF"/>
<path d="M99.609 94.4256C98.7374 94.4256 98.0318 93.8083 97.9488 93.0174L97.6997 90.5095H101.539L101.29 93.0174C101.186 93.8276 100.481 94.4256 99.609 94.4256Z" fill="#BEB6FF"/>
</g>
<g filter="url(#filter2_d_8_3797)">
<circle cx="59.5" cy="52.5" r="26.5" fill="white"/>
</g>
<path d="M71.6564 67.5967C71.5285 67.4688 62.1744 58.1146 62.0464 57.9866C62.3968 57.6363 64.2357 55.7973 64.8488 55.1843C64.9511 55.2867 74.3564 64.692 74.4588 64.7944C74.8262 65.1619 74.4968 66.0871 73.723 66.8609C72.9491 67.6348 72.0239 67.9642 71.6564 67.5967Z" fill="#446DFF"/>
<path d="M63.1731 66.6104C62.6296 66.067 61.9313 65.3687 61.3879 64.8253C62.6924 63.5207 69.5398 56.6733 71.8224 54.3908C72.2571 54.8255 73.1728 55.7412 73.6076 56.1759C75.1683 57.7367 74.0977 61.3378 71.2163 64.2192C68.3349 67.1006 64.7338 68.1712 63.1731 66.6104Z" fill="#BEB6FF"/>
<ellipse cx="66.8798" cy="59.8746" rx="7.3783" ry="3.99658" transform="rotate(135 66.8798 59.8746)" fill="#BEB6FF"/>
<path d="M59.4343 66.3077C58.7117 65.585 58.5365 65.4098 57.8138 64.6871C59.5485 62.9524 68.6539 53.847 71.6892 50.8117C72.2673 51.3899 72.7316 51.8541 73.3097 52.4323C75.3852 54.5077 73.9615 59.2963 70.1299 63.1279C66.2984 66.9595 61.5098 68.3831 59.4343 66.3077Z" fill="#BEB6FF"/>
<ellipse cx="64.6064" cy="57.6117" rx="9.81138" ry="5.3145" transform="rotate(135 64.6064 57.6117)" fill="#253F9C"/>
<path d="M62.4767 58.3657C62.3435 58.2325 52.6069 48.4958 52.4737 48.3626C52.8351 48.0012 54.732 46.1042 55.3644 45.4719C55.4709 45.5784 65.2608 55.3684 65.3674 55.475C65.7499 55.8575 65.4128 56.8146 64.6146 57.6129C63.8163 58.4111 62.8592 58.7482 62.4767 58.3657Z" fill="#446DFF"/>
<path d="M48.1322 55.0074C47.4095 54.2847 46.481 53.3562 45.7583 52.6335C47.4931 50.8987 56.5984 41.7934 59.6337 38.7581C60.2118 39.3363 61.4294 40.5538 62.0076 41.132C64.083 43.2074 62.6594 47.996 58.8278 51.8276C54.9962 55.6592 50.2076 57.0828 48.1322 55.0074Z" fill="#BEB6FF"/>
<ellipse cx="53.055" cy="46.0506" rx="9.81138" ry="5.3145" transform="rotate(135 53.055 46.0506)" fill="#253F9C"/>
<path d="M46.5492 49.9835C46.0057 49.44 45.3075 48.7418 44.764 48.1983C46.0686 46.8937 52.9159 40.0464 55.1985 37.7638C55.6333 38.1986 56.5489 39.1142 56.9837 39.549C58.5444 41.1098 57.4739 44.7108 54.5924 47.5922C51.711 50.4737 48.11 51.5442 46.5492 49.9835Z" fill="#BEB6FF"/>
<ellipse cx="50.2502" cy="43.2474" rx="7.3783" ry="3.99658" transform="rotate(135 50.2502 43.2474)" fill="#253F9C"/>
<path d="M48.265 44.1991C48.1222 44.0563 45.5241 41.4581 45.3813 41.3153C45.7317 40.9649 47.5706 39.126 48.1836 38.513C48.2978 38.6272 50.9531 41.2825 51.0673 41.3968C51.4774 41.8068 51.1825 42.7665 50.4086 43.5404C49.6348 44.3142 48.675 44.6091 48.265 44.1991Z" fill="#446DFF"/>
<ellipse cx="46.5428" cy="39.6811" rx="1.98159" ry="0.990793" transform="rotate(135 46.5428 39.6811)" fill="#BEB6FF"/>
<defs>
<filter id="filter0_d_8_3797" x="0" y="0" width="49" height="51" filterUnits="userSpaceOnUse" color-interpolation-filters="sRGB">
<feFlood flood-opacity="0" result="BackgroundImageFix"/>
<feColorMatrix in="SourceAlpha" type="matrix" values="0 0 0 0 0 0 0 0 0 0 0 0 0 0 0 0 0 0 127 0" result="hardAlpha"/>
<feMorphology radius="5" operator="erode" in="SourceAlpha" result="effect1_dropShadow_8_3797"/>
<feOffset dy="9"/>
<feGaussianBlur stdDeviation="6"/>
<feComposite in2="hardAlpha" operator="out"/>
<feColorMatrix type="matrix" values="0 0 0 0 0.463212 0 0 0 0 0.45591 0 0 0 0 0.821011 0 0 0 0.25 0"/>
<feBlend mode="normal" in2="BackgroundImageFix" result="effect1_dropShadow_8_3797"/>
<feBlend mode="normal" in="SourceGraphic" in2="effect1_dropShadow_8_3797" result="shape"/>
</filter>
<filter id="filter1_d_8_3797" x="65" y="73" width="50" height="52" filterUnits="userSpaceOnUse" color-interpolation-filters="sRGB">
<feFlood flood-opacity="0" result="BackgroundImageFix"/>
<feColorMatrix in="SourceAlpha" type="matrix" values="0 0 0 0 0 0 0 0 0 0 0 0 0 0 0 0 0 0 127 0" result="hardAlpha"/>
<feMorphology radius="5" operator="erode" in="SourceAlpha" result="effect1_dropShadow_8_3797"/>
<feOffset dy="9"/>
<feGaussianBlur stdDeviation="6"/>
<feComposite in2="hardAlpha" operator="out"/>
<feColorMatrix type="matrix" values="0 0 0 0 0.463212 0 0 0 0 0.45591 0 0 0 0 0.821011 0 0 0 0.25 0"/>
<feBlend mode="normal" in2="BackgroundImageFix" result="effect1_dropShadow_8_3797"/>
<feBlend mode="normal" in="SourceGraphic" in2="effect1_dropShadow_8_3797" result="shape"/>
</filter>
<filter id="filter2_d_8_3797" x="26" y="26" width="67" height="69" filterUnits="userSpaceOnUse" color-interpolation-filters="sRGB">
<feFlood flood-opacity="0" result="BackgroundImageFix"/>
<feColorMatrix in="SourceAlpha" type="matrix" values="0 0 0 0 0 0 0 0 0 0 0 0 0 0 0 0 0 0 127 0" result="hardAlpha"/>
<feMorphology radius="5" operator="erode" in="SourceAlpha" result="effect1_dropShadow_8_3797"/>
<feOffset dy="9"/>
<feGaussianBlur stdDeviation="6"/>
<feComposite in2="hardAlpha" operator="out"/>
<feColorMatrix type="matrix" values="0 0 0 0 0.463212 0 0 0 0 0.45591 0 0 0 0 0.821011 0 0 0 0.25 0"/>
<feBlend mode="normal" in2="BackgroundImageFix" result="effect1_dropShadow_8_3797"/>
<feBlend mode="normal" in="SourceGraphic" in2="effect1_dropShadow_8_3797" result="shape"/>
</filter>
<clipPath id="clip0_8_3797">
<rect width="18.8462" height="17.0513" fill="white" transform="translate(15.0772 8.0769)"/>
</clipPath>
<clipPath id="clip1_8_3797">
<rect width="23.0769" height="18.4615" fill="white" transform="translate(78.4612 81.3076)"/>
</clipPath>
</defs>
</svg>
