<svg width="57" height="57" viewBox="0 0 57 57" fill="none" xmlns="http://www.w3.org/2000/svg">
<g clip-path="url(#clip0_8_3795)">
<rect width="49.4458" height="49.4458" rx="6.86747" fill="white"/>
<rect width="49.4458" height="12.3614" fill="#253F9C"/>
<circle cx="9.49877" cy="22.0919" r="3.43374" fill="#BEB6FF"/>
<circle cx="9.49877" cy="35.2562" r="3.43374" fill="#BEB6FF"/>
<circle cx="23.9212" cy="22.0919" r="3.43374" fill="#BEB6FF"/>
<circle cx="23.9212" cy="35.2562" r="3.43374" fill="#BEB6FF"/>
<circle cx="38.3406" cy="22.0919" r="3.43374" fill="#BEB6FF"/>
</g>
<rect x="30.2168" y="30.2168" width="26.7831" height="26.7831" rx="13.3916" fill="#446DFF"/>
<path d="M39.502 47.2334L43.2805 43.2386C43.8189 42.6714 44.2227 42.157 44.4919 41.6955C44.7707 41.234 44.9101 40.7821 44.9101 40.3399C44.9101 39.8976 44.79 39.5563 44.5496 39.3159C44.3189 39.066 43.9823 38.941 43.5401 38.941C43.0594 38.941 42.6844 39.09 42.4152 39.388C42.146 39.6861 41.9729 40.1668 41.896 40.8302H39.776C39.8337 39.638 40.1991 38.7294 40.8721 38.1045C41.5451 37.47 42.4681 37.1527 43.641 37.1527C44.7371 37.1527 45.6216 37.4411 46.2946 38.018C46.91 38.6045 47.2176 39.3592 47.2176 40.2822C47.2176 40.9263 47.0494 41.5417 46.7129 42.1282C46.3763 42.705 45.8812 43.3059 45.2274 43.9309L43.2805 45.8345H47.2897V47.6084H39.502V47.2334Z" fill="white"/>
<defs>
<clipPath id="clip0_8_3795">
<rect width="49.4458" height="49.4458" rx="6.86747" fill="white"/>
</clipPath>
</defs>
</svg>
