<svg width="59" height="56" viewBox="0 0 59 56" fill="none" xmlns="http://www.w3.org/2000/svg">
<path fill-rule="evenodd" clip-rule="evenodd" d="M15.4434 8.04077C9.92051 8.04077 5.44336 12.5179 5.44336 18.0408V37.804C5.44336 37.8192 5.44339 37.8344 5.44346 37.8496V55.2174L15.4875 47.804H48.6856C54.2084 47.804 58.6856 43.3268 58.6856 37.804V18.0408C58.6856 12.5179 54.2084 8.04077 48.6856 8.04077H15.4434Z" fill="#253F9C"/>
<path d="M39.6148 9.63677C39.9142 8.71546 41.2176 8.71546 41.5169 9.63677L43.6128 16.0873C43.7467 16.4993 44.1306 16.7782 44.5639 16.7782H51.3463C52.315 16.7782 52.7178 18.0179 51.9341 18.5873L46.447 22.5739C46.0965 22.8285 45.9498 23.2799 46.0837 23.6919L48.1796 30.1424C48.479 31.0637 47.4245 31.8299 46.6408 31.2605L41.1537 27.2738C40.8032 27.0192 40.3286 27.0192 39.9781 27.2738L34.491 31.2605C33.7072 31.8299 32.6528 31.0637 32.9521 30.1424L35.048 23.6919C35.1819 23.2799 35.0352 22.8285 34.6847 22.5739L29.1976 18.5873C28.4139 18.0179 28.8167 16.7782 29.7854 16.7782H36.5679C37.0011 16.7782 37.385 16.4993 37.5189 16.0873L39.6148 9.63677Z" fill="#253F9C"/>
<mask id="path-3-inside-1_7_2748" fill="white">
<path fill-rule="evenodd" clip-rule="evenodd" d="M7 0.782715C3.13401 0.782715 0 3.91672 0 7.78272V24.3711V33.5459V47.9594L10.0441 40.5459H46.2422C50.1082 40.5459 53.2422 37.4119 53.2422 33.5459V7.78271C53.2422 3.91672 50.1082 0.782715 46.2422 0.782715H7Z"/>
</mask>
<path fill-rule="evenodd" clip-rule="evenodd" d="M7 0.782715C3.13401 0.782715 0 3.91672 0 7.78272V24.3711V33.5459V47.9594L10.0441 40.5459H46.2422C50.1082 40.5459 53.2422 37.4119 53.2422 33.5459V7.78271C53.2422 3.91672 50.1082 0.782715 46.2422 0.782715H7Z" fill="white"/>
<path d="M0 47.9594H-0.414286V48.7801L0.246025 48.2927L0 47.9594ZM10.0441 40.5459V40.1316H9.90774L9.79805 40.2126L10.0441 40.5459ZM0.414286 7.78272C0.414286 4.14553 3.36281 1.197 7 1.197V0.368429C2.9052 0.368429 -0.414286 3.68792 -0.414286 7.78272H0.414286ZM0.414286 24.3711V7.78272H-0.414286V24.3711H0.414286ZM0.414286 33.5459V24.3711H-0.414286V33.5459H0.414286ZM0.414286 47.9594V33.5459H-0.414286V47.9594H0.414286ZM9.79805 40.2126L-0.246025 47.6261L0.246025 48.2927L10.2901 40.8792L9.79805 40.2126ZM46.2422 40.1316H10.0441V40.9602H46.2422V40.1316ZM52.828 33.5459C52.828 37.1831 49.8794 40.1316 46.2422 40.1316V40.9602C50.337 40.9602 53.6565 37.6407 53.6565 33.5459H52.828ZM52.828 7.78271V33.5459H53.6565V7.78271H52.828ZM46.2422 1.197C49.8794 1.197 52.828 4.14553 52.828 7.78271H53.6565C53.6565 3.68792 50.337 0.368429 46.2422 0.368429V1.197ZM7 1.197H46.2422V0.368429H7V1.197Z" fill="#D3D4E5" mask="url(#path-3-inside-1_7_2748)"/>
<path d="M26.0063 8.72954C26.3056 7.80823 27.609 7.80823 27.9084 8.72954L30.0043 15.18C30.1381 15.5921 30.5221 15.871 30.9553 15.871H37.7378C38.7065 15.871 39.1093 17.1106 38.3256 17.68L32.8384 21.6667C32.488 21.9213 32.3413 22.3727 32.4752 22.7847L34.5711 29.2352C34.8704 30.1565 33.8159 30.9226 33.0322 30.3532L27.5451 26.3666C27.1946 26.112 26.72 26.112 26.3695 26.3666L20.8824 30.3532C20.0987 30.9226 19.0442 30.1565 19.3436 29.2352L21.4395 22.7847C21.5733 22.3727 21.4267 21.9213 21.0762 21.6667L15.5891 17.68C14.8054 17.1106 15.2081 15.871 16.1769 15.871H22.9593C23.3925 15.871 23.7765 15.5921 23.9104 15.18L26.0063 8.72954Z" fill="#446DFF"/>
</svg>
