<svg width="258" height="77" viewBox="0 0 258 77" fill="none" xmlns="http://www.w3.org/2000/svg">
<circle cx="17" cy="39" r="17" fill="#E4FFD3"/>
<g clip-path="url(#clip0_7_365)">
<path d="M26.3115 41.23C26.3115 41.23 23.0993 43.1949 17.0708 43.1949C11.0422 43.1949 7.55078 41.23 7.55078 41.23V42.3118C7.55078 42.3118 11.0422 44.2767 17.0708 44.2767C23.0993 44.2767 26.3115 42.3118 26.3115 42.3118V41.23Z" fill="#4D6EF6"/>
<path d="M21.8748 45.7469C23.9197 45.4436 25.3954 44.0942 25.171 42.7328C24.9465 41.3715 23.1069 40.5139 21.0621 40.8172C19.0173 41.1205 17.5415 42.4699 17.766 43.8312C17.9904 45.1925 19.83 46.0502 21.8748 45.7469Z" fill="#2B4096"/>
<path d="M16.3934 43.8436C16.6179 42.4823 15.1421 41.1328 13.0973 40.8295C11.0524 40.5262 9.21283 41.3839 8.9884 42.7452C8.76397 44.1065 10.2397 45.456 12.2845 45.7593C14.3294 46.0626 16.169 45.2049 16.3934 43.8436Z" fill="#2B4096"/>
<path d="M21.712 44.7882C23.0202 44.5941 23.9728 43.7825 23.8398 42.9753C23.7067 42.1682 22.5383 41.6712 21.2301 41.8652C19.9219 42.0593 18.9693 42.8709 19.1024 43.678C19.2355 44.4852 20.4038 44.9822 21.712 44.7882Z" fill="#CAFF96"/>
<path d="M15.074 43.6768C15.2071 42.8696 14.2545 42.058 12.9463 41.8639C11.6381 41.6699 10.4697 42.1669 10.3366 42.9741C10.2036 43.7812 11.1562 44.5928 12.4644 44.7869C13.7726 44.9809 14.941 44.4839 15.074 43.6768Z" fill="#CAFF96"/>
<path d="M7.48047 38.2936C7.48047 38.2936 10.3667 39.2209 14.1142 39.5741C13.9978 37.8741 13.4625 33.4806 10.9021 30.7871C7.59685 33.5689 7.48047 38.2936 7.48047 38.2936Z" fill="#4D6EF6"/>
<path d="M23.169 30.765C20.5853 33.4585 20.05 37.8741 19.9336 39.5741C23.6578 39.1988 26.5208 38.2936 26.5208 38.2936C26.4975 37.2118 26.1484 33.2157 23.169 30.765Z" fill="#4D6EF6"/>
<path d="M17.0007 28.8C14.2541 28.8 12.2989 29.6169 10.9023 30.7871C13.4627 33.4806 13.9981 37.8741 14.0912 39.5741C15.0222 39.6624 15.9998 39.7286 17.0007 39.7286C18.0016 39.7286 18.9792 39.6624 19.9103 39.5741C20.0266 37.8741 20.562 33.4585 23.1457 30.765C21.7724 29.6169 19.7939 28.8 17.0007 28.8Z" fill="#2B4096"/>
<rect x="15.7305" y="36.9852" width="2.53867" height="1.25926" fill="#CAFF96"/>
</g>
<rect x="219.42" y="0.160889" width="54.3335" height="54.3335" rx="10" transform="rotate(45 219.42 0.160889)" fill="#CCE4FF"/>
<path d="M232.099 53.267C231.964 53.1313 222.042 43.2098 221.907 43.0741C222.278 42.7025 224.229 40.752 224.879 40.1018C224.987 40.2104 234.963 50.1861 235.072 50.2947C235.461 50.6845 235.112 51.6658 234.291 52.4866C233.47 53.3073 232.489 53.6567 232.099 53.267Z" fill="#446DFF"/>
<path d="M223.103 52.221C222.527 51.6446 221.786 50.904 221.21 50.3275C222.594 48.9439 229.856 41.6813 232.277 39.2603C232.738 39.7214 233.709 40.6926 234.171 41.1537C235.826 42.8092 234.69 46.6286 231.634 49.6847C228.578 52.7409 224.759 53.8764 223.103 52.221Z" fill="#CAFF96"/>
<ellipse cx="227.03" cy="45.0765" rx="7.82573" ry="4.23894" transform="rotate(135 227.03 45.0765)" fill="#CAFF96"/>
<path d="M219.135 51.8998C218.369 51.1333 218.183 50.9475 217.416 50.181C219.256 48.3411 228.914 38.6835 232.133 35.4642C232.746 36.0774 233.239 36.5698 233.852 37.183C236.053 39.3843 234.543 44.4633 230.479 48.5272C226.416 52.5912 221.337 54.1011 219.135 51.8998Z" fill="#CBFF96"/>
<ellipse cx="224.623" cy="42.6766" rx="10.4064" ry="5.63678" transform="rotate(135 224.623 42.6766)" fill="#253F9C"/>
<path d="M222.365 43.4764C222.224 43.3351 211.897 33.0079 211.756 32.8667C212.139 32.4834 214.151 30.4714 214.822 29.8007C214.935 29.9137 225.318 40.2974 225.431 40.4104C225.837 40.8161 225.48 41.8313 224.633 42.678C223.786 43.5246 222.771 43.8821 222.365 43.4764Z" fill="#446DFF"/>
<path d="M207.149 39.9145C206.382 39.148 205.398 38.1632 204.631 37.3966C206.471 35.5567 216.129 25.8992 219.348 22.6798C219.961 23.2931 221.253 24.5845 221.866 25.1977C224.067 27.399 222.557 32.4779 218.493 36.5419C214.429 40.6058 209.35 42.1158 207.149 39.9145Z" fill="#CBFF96"/>
<ellipse cx="212.371" cy="30.4146" rx="10.4064" ry="5.63678" transform="rotate(135 212.371 30.4146)" fill="#253F9C"/>
<path d="M205.471 34.5859C204.894 34.0094 204.154 33.2688 203.577 32.6924C204.961 31.3087 212.223 24.0461 214.644 21.6252C215.105 22.0863 216.077 23.0575 216.538 23.5186C218.193 25.174 217.058 28.9935 214.002 32.0496C210.945 35.1058 207.126 36.2413 205.471 34.5859Z" fill="#CBFF96"/>
<ellipse cx="209.395" cy="27.4414" rx="7.82573" ry="4.23894" transform="rotate(135 209.395 27.4414)" fill="#253F9C"/>
<path d="M207.289 28.4506C207.138 28.2992 204.382 25.5434 204.23 25.3919C204.602 25.0203 206.553 23.0698 207.203 22.4196C207.324 22.5408 210.14 25.3572 210.261 25.4783C210.696 25.9132 210.383 26.9312 209.563 27.7519C208.742 28.5727 207.724 28.8855 207.289 28.4506Z" fill="#446DFF"/>
<ellipse cx="205.464" cy="23.6586" rx="2.10175" ry="1.05088" transform="rotate(135 205.464 23.6586)" fill="#CBFF96"/>
<circle cx="142" cy="38" r="32" fill="#F1E4FF"/>
<path d="M141.043 29.207V54.1193C138.535 51.9991 132.444 46.3806 128.144 40.8681C122.77 33.9774 123.845 26.0267 130.294 24.4366C136.134 22.9968 139.968 27.6169 141.043 29.207Z" fill="#4D6EF6"/>
<path d="M141.045 29.207V54.1193C143.553 51.9991 149.644 46.3806 153.944 40.8681C159.318 33.9774 158.243 26.0267 151.794 24.4366C145.954 22.9968 142.119 27.6169 141.045 29.207Z" fill="#4D6EF6"/>
<rect x="147.768" y="41.2112" width="1.9431" height="8.74397" rx="0.971552" fill="#DB81D7"/>
<rect x="155.541" y="38.2963" width="1.9431" height="9.71552" rx="0.971552" fill="#DB81D7"/>
<rect x="158.977" y="35.1765" width="1.9431" height="5.82931" rx="0.971552" fill="#DB81D7"/>
<rect x="143.883" y="43.1543" width="1.9431" height="5.82931" rx="0.971552" fill="#DB81D7"/>
<rect x="151.654" y="36.3533" width="1.9431" height="16.5164" rx="0.971552" fill="#DB81D7"/>
<rect x="50" y="17" width="44" height="44" rx="11.3043" fill="#CFE5FF"/>
<g clip-path="url(#clip1_7_365)">
<path d="M72.001 38.1367H66.8026L67.2803 27.2088C67.3365 26.1427 68.2638 25.2898 69.3877 25.2898C70.5117 25.2898 71.4671 26.1427 71.4952 27.2088L72.001 38.1367Z" fill="white"/>
<path d="M64.1884 47.0655C63.1206 47.0655 62.2215 46.2659 62.1372 45.2531L61.6033 38.1633H66.8016L66.2677 45.2531C66.1554 46.2659 65.2562 47.0655 64.1884 47.0655Z" fill="#2B4096"/>
<path d="M82.3975 38.0034H77.1991L77.8173 30.8337C77.9016 29.8475 78.7727 29.1012 79.8123 29.1012C80.852 29.1012 81.7231 29.8475 81.8074 30.8337L82.3975 38.0034Z" fill="#446DFF"/>
<path d="M74.6132 50.797C73.405 50.797 72.4215 49.8908 72.3934 48.7714L72 38.1633H77.1984L76.805 48.7714C76.7769 49.8908 75.7934 50.797 74.6132 50.797Z" fill="#2B4096"/>
<path d="M61.5752 38.2167H56.3768L56.714 34.7517C56.8264 33.6589 57.8099 32.806 58.9619 32.806C60.1421 32.806 61.0975 33.6589 61.2099 34.7517L61.5752 38.2167Z" fill="#446DFF"/>
<path d="M85.0108 43.414C83.8306 43.414 82.8752 42.5611 82.7629 41.4684L82.4257 38.0034H87.624L87.2868 41.4684C87.1463 42.5878 86.191 43.414 85.0108 43.414Z" fill="white"/>
</g>
<defs>
<clipPath id="clip0_7_365">
<rect width="19.04" height="17" fill="white" transform="translate(7.48047 28.8)"/>
</clipPath>
<clipPath id="clip1_7_365">
<rect width="31.2464" height="25.5072" fill="white" transform="translate(56.3768 25.2898)"/>
</clipPath>
</defs>
</svg>
