<svg width="46" height="61" viewBox="0 0 46 61" fill="none" xmlns="http://www.w3.org/2000/svg">
<path d="M41.3984 60.8349L3.7235 60.9213C1.69488 60.9819 0.0927964 59.3459 0.0333305 57.3241L0 10.6089C0.0150958 8.57935 1.58323 6.98922 3.61957 7.00284L41.2944 6.9165C43.3308 6.93012 44.9328 8.56621 44.9846 10.5137L45.0179 57.2289C45.0774 59.2507 43.4347 60.8485 41.3984 60.8349Z" fill="white"/>
<path d="M31.2821 4.1263L27.5154 4.14236C27.1191 1.78004 25.0464 -0.0324537 22.5627 0.000440684L22.339 0.0236966C19.8553 0.056591 17.7807 1.8496 17.4237 4.21514L13.657 4.2312C10.5613 4.1775 8.03431 6.69354 8.05281 9.77114L36.9112 9.7001C36.9673 6.61475 34.37 4.1057 31.2821 4.1263ZM24.7875 4.72642C24.762 5.93083 23.8108 6.93105 22.5356 6.98852C21.3271 6.96394 20.3242 6.01667 20.2675 4.74569C20.293 3.54127 21.2441 2.54106 22.5194 2.48358C23.7278 2.50817 24.7307 3.45544 24.7875 4.72642Z" fill="#2B4096"/>
<path d="M9.88269 26.603C11.5395 26.603 12.8827 25.2599 12.8827 23.603C12.8827 21.9462 11.5395 20.603 9.88269 20.603C8.22584 20.603 6.88269 21.9462 6.88269 23.603C6.88269 25.2599 8.22584 26.603 9.88269 26.603Z" fill="#4D6EF6"/>
<path d="M9.88269 46.603C11.5395 46.603 12.8827 45.2599 12.8827 43.603C12.8827 41.9462 11.5395 40.603 9.88269 40.603C8.22584 40.603 6.88269 41.9462 6.88269 43.603C6.88269 45.2599 8.22584 46.603 9.88269 46.603Z" fill="#4D6EF6"/>
<path d="M9.88269 36.603C11.5395 36.603 12.8827 35.2599 12.8827 33.603C12.8827 31.9462 11.5395 30.603 9.88269 30.603C8.22584 30.603 6.88269 31.9462 6.88269 33.603C6.88269 35.2599 8.22584 36.603 9.88269 36.603Z" fill="#4D6EF6"/>
<rect x="15.8827" y="21.603" width="22" height="4" rx="2" fill="#CAD6FF"/>
<rect x="15.8827" y="41.603" width="18" height="4" rx="2" fill="#CAD6FF"/>
<rect x="15.8827" y="31.603" width="16" height="4" rx="2" fill="#CAD6FF"/>
</svg>
