<svg width="114" height="49" viewBox="0 0 114 49" fill="none" xmlns="http://www.w3.org/2000/svg">
<path d="M73.441 40.4908L80.0485 38.9982C81.8326 44.5142 89.9274 44.899 90.4781 41.8524C90.8991 37.9399 83.5888 37.4142 81.8325 37.0022C77.5812 36.0055 74.2177 33.9268 74.2177 29.2581C74.2177 23.4441 80.3862 21.3921 85.4848 21.3921C90.5835 21.3921 95.6281 24.3425 97.5294 28.3865L91.3407 30.0395C89.0982 25.3191 80.5991 25.3046 80.5991 28.3865C80.5991 33.4036 97.7878 30.3101 97.7878 39.6185C97.7878 42.0468 96.6043 44.0986 94.2392 45.7732C91.8734 47.4492 88.9985 48.2862 85.6144 48.2862C82.2303 48.2862 79.4065 47.5858 77.2487 46.1831C75.0903 44.7816 73.8206 42.8844 73.441 40.4908Z" fill="#4800E2"/>
<path fill-rule="evenodd" clip-rule="evenodd" d="M56.3437 26.3759C53.6653 23.1225 50.2781 21.394 45.76 21.394C41.8441 21.394 38.5634 22.6807 35.9202 25.2534C33.2764 27.8272 31.9545 31.0216 31.9545 34.8405C31.9545 38.6594 33.3013 41.8549 35.9955 44.4276C38.6892 47.0014 42.0277 48.2875 46.011 48.2875C51.5046 48.2875 54.8881 46.3332 56.9192 44.4175L53.0503 40.2679C48.0689 43.7642 39.5015 42.7926 38.9221 37.7291H59.2646C59.2646 34.1328 59.0209 29.6304 56.3437 26.3759ZM38.9221 32.4937C39.5777 28.6243 42.4861 26.7881 46.4905 27.0658C49.7593 27.0658 52.2256 29.9171 52.7174 32.5027L38.9221 32.4937Z" fill="#4800E2"/>
<path d="M109 49C104.4 49 100.671 45.306 100.671 40.7493V22.1059H109V49Z" fill="#4800E2"/>
<path d="M24.073 23.893C26.0238 25.9126 26.584 28.7797 27.4612 31.5604L32.0879 48.2451H23.7981L19.6252 32.7191C17.6954 24.4926 8.28981 26.4044 8.28981 31.0912V48.2422H0V21.7773C0 15.4936 3.09408 9.60493 8.28981 6V24.7336C16.2919 19.2201 22.121 21.8746 24.073 23.893Z" fill="#4800E2"/>
<path d="M70.1554 48.5633C65.8207 48.5633 62.3068 45.0824 62.3068 40.7886V6.87351H70.1554V48.5633Z" fill="#4800E2"/>
<path d="M104.189 0.411502L104.147 0.270376C102.944 9.07604 86.7379 16.6232 86.7379 16.6232L86.7624 16.6134C93.8368 14.4933 102.563 10.4199 104.654 18.2806C105.629 8.84101 113.936 4.27137 113.936 4.27137C113.936 4.27137 104.84 6.46814 104.189 0.411495L104.189 0.411502Z" fill="#FD64F7"/>
</svg>
