<svg width="65" height="24" viewBox="0 0 65 24" fill="none" xmlns="http://www.w3.org/2000/svg">
<path d="M13.1676 14.1624H4.10905V23.426H0V1.5073H4.10905V10.4883H13.1676V1.5073H17.2767V23.426H13.1676V14.1624Z" fill="#3447F6"/>
<path d="M27.2955 23.8028C26.0918 23.8028 25.0126 23.6039 24.058 23.2062C23.1241 22.7875 22.3252 22.2118 21.6611 21.4791C21.0177 20.7254 20.5197 19.8252 20.1669 18.7785C19.8141 17.7108 19.6377 16.5175 19.6377 15.1986C19.6377 13.9007 19.8037 12.7283 20.1357 11.6816C20.4885 10.6349 20.9866 9.74513 21.6299 9.01241C22.2733 8.25876 23.0619 7.68306 23.9958 7.2853C24.9296 6.8666 25.988 6.65725 27.1709 6.65725C28.4369 6.65725 29.5368 6.87707 30.4706 7.3167C31.4045 7.75633 32.1724 8.35297 32.7742 9.10662C33.376 9.86027 33.8222 10.7395 34.1127 11.7444C34.424 12.7283 34.5797 13.7855 34.5797 14.916V16.2349H23.7779V16.6431C23.7779 17.8364 24.1099 18.7994 24.774 19.5321C25.4381 20.2439 26.4238 20.5998 27.7313 20.5998C28.7274 20.5998 29.5368 20.3905 30.1593 19.9718C30.8027 19.5531 31.3734 19.0192 31.8714 18.3702L34.0194 20.7882C33.3553 21.7303 32.4421 22.4735 31.28 23.0178C30.1386 23.5411 28.8104 23.8028 27.2955 23.8028ZM27.2332 9.67186C26.1748 9.67186 25.3343 10.0277 24.7117 10.7395C24.0891 11.4513 23.7779 12.3724 23.7779 13.5029V13.7541H30.4395V13.4715C30.4395 12.341 30.1593 11.4304 29.599 10.7395C29.0594 10.0277 28.2708 9.67186 27.2332 9.67186Z" fill="#3447F6"/>
<path d="M40.672 23.426C39.3024 23.426 38.2959 23.0806 37.6525 22.3897C37.0092 21.6989 36.6875 20.7254 36.6875 19.4693V0.188413H40.672V20.223H42.82V23.426H40.672Z" fill="#3447F6"/>
<path d="M51.1609 23.8028C49.6044 23.8028 48.297 23.5411 47.2386 23.0178C46.1802 22.4735 45.2463 21.7303 44.437 20.7882L46.865 18.4016C47.4669 19.0925 48.1206 19.6368 48.8262 20.0346C49.5525 20.4323 50.3826 20.6312 51.3165 20.6312C52.2711 20.6312 52.956 20.4637 53.371 20.1288C53.8069 19.7938 54.0247 19.3332 54.0247 18.7471C54.0247 18.2656 53.8691 17.8888 53.5578 17.6166C53.2673 17.3235 52.7588 17.1246 52.0325 17.02L50.4138 16.8001C48.6498 16.5699 47.3008 16.0674 46.367 15.2928C45.4538 14.4973 44.9973 13.3459 44.9973 11.8386C44.9973 11.0431 45.1426 10.3313 45.4331 9.70326C45.7236 9.05428 46.1387 8.50998 46.6783 8.07035C47.2178 7.60978 47.8612 7.26436 48.6083 7.03408C49.3761 6.78286 50.227 6.65725 51.1609 6.65725C51.9495 6.65725 52.6447 6.72006 53.2465 6.84567C53.8691 6.95034 54.4294 7.11782 54.9275 7.3481C55.4256 7.55745 55.8821 7.8296 56.2972 8.16455C56.7122 8.47858 57.1169 8.83447 57.5112 9.23223L55.1765 11.5874C54.6992 11.085 54.1285 10.6663 53.4644 10.3313C52.8003 9.99634 52.074 9.82887 51.2854 9.82887C50.4138 9.82887 49.7808 9.98588 49.3865 10.2999C49.013 10.6139 48.8262 11.0221 48.8262 11.5246C48.8262 12.0689 48.9818 12.4876 49.2931 12.7807C49.6252 13.0528 50.1751 13.2517 50.943 13.3773L52.5928 13.5971C56.1 14.0996 57.8536 15.7115 57.8536 18.4331C57.8536 19.2286 57.6876 19.9613 57.3556 20.6312C57.0443 21.2802 56.5981 21.8454 56.017 22.3269C55.4359 22.7875 54.7303 23.1538 53.9002 23.426C53.0909 23.6772 52.1777 23.8028 51.1609 23.8028Z" fill="#3447F6"/>
<path d="M62.6653 4.64751C61.8352 4.64751 61.2334 4.4591 60.8598 4.08228C60.507 3.70545 60.3306 3.22395 60.3306 2.63778V2.00974C60.3306 1.42356 60.507 0.942064 60.8598 0.565239C61.2334 0.188413 61.8352 0 62.6653 0C63.4747 0 64.0661 0.188413 64.4397 0.565239C64.8132 0.942064 65 1.42356 65 2.00974V2.63778C65 3.22395 64.8132 3.70545 64.4397 4.08228C64.0661 4.4591 63.4747 4.64751 62.6653 4.64751ZM60.673 7.03408H64.6576V23.426H60.673V7.03408Z" fill="#3447F6"/>
</svg>
