<svg width="40" height="40" viewBox="0 0 40 40" fill="none" xmlns="http://www.w3.org/2000/svg">
<circle cx="20" cy="20" r="20" fill="white"/>
<path d="M9.33984 25.4667C9.87616 26.5334 10.6806 27.6 11.4851 28.4C13.7644 30.6667 16.7141 32 20.0661 32C23.1499 32 25.9655 30.8 28.1108 28.9334C30.256 27.0667 31.7309 24.4 31.9991 21.3334" stroke="#423EFF" stroke-width="2" stroke-linecap="round" stroke-linejoin="round"/>
<path d="M15.9097 25.4666H9.33984V31.9999" stroke="#423EFF" stroke-width="2" stroke-linecap="round" stroke-linejoin="round"/>
<path d="M30.6592 14.5333C30.1229 13.4667 29.3184 12.4 28.514 11.6C26.3687 9.33333 23.2849 8 19.933 8C16.8492 8 14.0335 9.2 11.8883 11.0667C9.74302 13.0667 8.26816 15.7333 8 18.6667" stroke="#423EFF" stroke-width="2" stroke-linecap="round" stroke-linejoin="round"/>
<path d="M24.2227 14.5333H30.7925V8" stroke="#423EFF" stroke-width="2" stroke-linecap="round" stroke-linejoin="round"/>
<path d="M13 18.4897C18.5 19.5 18.8262 18.6562 19.9137 18.1114C23.5 16.3147 19.9137 12.9107 18.2274 16.3148C17.4686 18.206 17.6372 21.1373 19.0706 22.5557C20.3353 23.5958 22.1902 23.5013 23.7078 23.2176C24.8882 23.0285 26.4058 21.9883 25.8999 20.4754C25.5627 19.7189 24.6352 19.7189 23.9607 20.0026C21.6 21.2319 21.2627 24.4469 21.2627 27" stroke="#423EFF" stroke-width="2" stroke-linecap="round" stroke-linejoin="round"/>
</svg>
